<?xml version="1.0" encoding="utf-8"?>
<!-- Generator: Adobe Illustrator 26.1.0, SVG Export Plug-In . SVG Version: 6.00 Build 0)  -->
<svg version="1.1" id="Layer_3" xmlns="http://www.w3.org/2000/svg" xmlns:xlink="http://www.w3.org/1999/xlink" x="0px" y="0px"
	 viewBox="0 0 800 1100" style="enable-background:new 0 0 800 1100;" xml:space="preserve">
<style type="text/css">
	.st0{clip-path:url(#SVGID_00000125596872556313372230000014750378553120094874_);}
	.st1{fill:url(#SVGID_00000183224791079631447340000011735222554699909037_);}
	.st2{fill:#885221;}
	.st3{fill:#FFDF97;}
	.st4{opacity:0.8;fill:#FFC75C;}
	.st5{opacity:0.5;fill:#C6812A;}
	.st6{fill:#FFFFFF;}
	.st7{fill:#F9F6E3;}
	.st8{opacity:0.4;fill:#FFF4B5;}
	.st9{opacity:0.6;fill:#FFF4B5;}
	.st10{opacity:0.7;fill:url(#SVGID_00000121252639587293090270000012397167134579398308_);}
	.st11{opacity:0.7;fill:url(#SVGID_00000007423517475140863300000005715147378775441323_);}
	.st12{opacity:0.5;fill:url(#SVGID_00000155841424599017912200000004687735879233957253_);}
	.st13{opacity:0.9;fill:url(#SVGID_00000170265593074902298040000008585939429797724343_);}
	.st14{opacity:0.5;fill:url(#SVGID_00000096770074729891662510000006689792537785904556_);}
	.st15{opacity:0.5;fill:url(#SVGID_00000018237316094587138060000009409188633020339877_);}
	.st16{opacity:0.9;fill:url(#SVGID_00000061435546231321716490000009886823067477709246_);}
	.st17{fill:url(#SVGID_00000061473387217064780220000005316692864839108239_);}
	.st18{fill:url(#SVGID_00000158024465947723653800000012792521988314119590_);}
	.st19{fill:url(#SVGID_00000040567091209085278970000000622364321920456351_);}
	.st20{fill:url(#SVGID_00000073001176079400594980000004621964619567841204_);}
	.st21{opacity:0.7;fill:url(#SVGID_00000063635727037916645190000008900678094565152191_);}
	.st22{fill:url(#SVGID_00000005224690585730381500000002724441465167940270_);}
	.st23{fill:#072C3D;}
	.st24{fill:#FEEE89;}
	.st25{fill:#6ACCF4;}
	.st26{fill:none;}
	.st27{fill:#D41C5C;}
	.st28{fill:#079247;}
	.st29{fill:#1172BA;}
	.st30{fill:#ED2224;}
	.st31{fill:#046937;}
	.st32{fill:#2E3690;}
	.st33{fill:#ED2079;}
	.st34{fill:#3CC1F0;stroke:#010101;stroke-width:7.186795e-02;stroke-miterlimit:10;}
	.st35{fill:#2E3690;stroke:#010101;stroke-width:7.186795e-02;stroke-linecap:round;stroke-miterlimit:10;}
	.st36{fill:#FFFFFF;stroke:#010101;stroke-width:7.186795e-02;stroke-miterlimit:10;}
	.st37{fill:#F6EB16;stroke:#010101;stroke-width:7.186795e-02;stroke-miterlimit:10;}
	.st38{fill:#010101;stroke:#010101;stroke-width:7.186795e-02;stroke-miterlimit:10;}
	.st39{fill:#ED2224;stroke:#010101;stroke-width:7.186795e-02;stroke-miterlimit:10;}
	.st40{fill:#F26E6B;stroke:#010101;stroke-width:7.186795e-02;stroke-miterlimit:10;}
	.st41{fill:none;stroke:#010101;stroke-width:7.186795e-02;stroke-miterlimit:10;}
	.st42{fill:none;stroke:#ED2224;stroke-width:0.4312;stroke-linecap:round;stroke-miterlimit:10;}
	.st43{fill:#010101;}
	.st44{fill:#A11D21;stroke:#010101;stroke-width:0.1437;stroke-miterlimit:10;}
	.st45{fill:#C1282D;stroke:#010101;stroke-width:7.186795e-02;stroke-linecap:round;stroke-miterlimit:10;}
	.st46{fill:#FFEAB5;stroke:#010101;stroke-width:7.186795e-02;stroke-miterlimit:10;}
	.st47{fill:#FDF7BC;stroke:#010101;stroke-width:7.186795e-02;stroke-linecap:round;stroke-miterlimit:10;}
	.st48{fill:#D42028;stroke:#010101;stroke-width:7.186795e-02;stroke-miterlimit:10;}
	.st49{fill:none;stroke:#010101;stroke-width:0.1437;stroke-linecap:round;stroke-miterlimit:10;}
	.st50{fill:none;stroke:#FFEAB5;stroke-width:1.2936;stroke-miterlimit:10;}
</style>
<g>
	<defs>
		<rect id="SVGID_1_" x="0" width="800" height="1100"/>
	</defs>
	<clipPath id="SVGID_00000132088314298569936230000002204266769285467832_">
		<use xlink:href="#SVGID_1_"  style="overflow:visible;"/>
	</clipPath>
	<g style="clip-path:url(#SVGID_00000132088314298569936230000002204266769285467832_);">
		
			<linearGradient id="SVGID_00000054259699583417379110000002889436035549535658_" gradientUnits="userSpaceOnUse" x1="400" y1="1100" x2="400" y2="-9.094947e-13">
			<stop  offset="0" style="stop-color:#1E2730"/>
			<stop  offset="0.2609" style="stop-color:#1F303B"/>
			<stop  offset="1" style="stop-color:#18495A"/>
		</linearGradient>
		<rect x="0" style="fill:url(#SVGID_00000054259699583417379110000002889436035549535658_);" width="800" height="1100"/>
		<g>
			<g>
				<g>
					<g>
						<path class="st2" d="M77.5,508.8c0.1-0.2,0-0.4-0.2-0.5L66,503.9l-2.8-11.8c0,0,0,0,0,0c0,0,0,0-0.1,0l-7.9,9.1l-12-1.4
							c-0.1,0-0.2,0-0.3,0.1c-0.2,0.1-0.3,0.4-0.1,0.6l0,0l6.4,10.2l-4.8,11l0,0c0,0.1,0,0.2,0,0.3c0.1,0.2,0.3,0.3,0.5,0.3l11.7-3
							l9.1,7.9c0,0,0,0,0.1,0c0.1,0,0.1-0.1,0.1-0.1l1-12l10.5-6C77.4,508.9,77.5,508.9,77.5,508.8z"/>
						<path class="st3" d="M56.8,517.9L56.8,517.9l-10.2,2.4l4.2-9.6c0-0.1,0-0.3,0-0.4l-5.5-8.9l10.4,0.8l0,0c0.1,0,0.1,0,0.2-0.1
							l7.1-8.7l2.2,11c0,0.1,0.1,0.1,0.1,0.1l0,0l9.7,4.1l-9,5.4l0,0c-0.1,0-0.1,0.1-0.1,0.2l-0.7,11L57,518
							C56.9,517.9,56.9,517.9,56.8,517.9z"/>
					</g>
					<path class="st4" d="M77.3,508.3L66,503.9l-2.8-11.8c0,0,0,0,0,0c0,0,0,0-0.1,0l-7.9,9.1l-12-1.4c-0.1,0-0.2,0-0.3,0.1
						c-0.2,0.1-0.3,0.4-0.1,0.6l0,0l6.4,10.2l-4.8,11l0,0c0,0.1,0,0.2,0,0.3c0.1,0.2,0.3,0.3,0.5,0.3l11.7-3l9.1,7.9c0,0,0,0,0.1,0
						c0.1,0,0.1-0.1,0.1-0.1l1-12l10.5-6c0.1,0,0.1-0.1,0.2-0.2C77.6,508.6,77.5,508.3,77.3,508.3z M65.7,512
						c-0.5,0.3-1.3,0.6-1.7,1.1c-1,1.1-0.6,1.8-0.6,2.9c0,0.6,0,1.4-0.5,1.9c-0.7,0.8-1.4,0.5-2.2,0c-1.6-1.2-2.6-3.8-4.9-2.9
						c-1.5,0.5-2.9,1.5-4.4,1.8c-0.7,0.2-1.5-0.1-1.6-0.9c-0.2-1.3,0.8-2.4,1.6-3.4c1.1-1.4,2.1-2.7,0.3-4.4
						c-0.6-0.6-1.3-1.2-1.8-1.8c-0.6-0.7-1.7-1.8-1.1-2.8c1-1.7,5.6-0.3,7.2-0.3c0,0,0,0,0,0c1.1-1.3,3.4-5.2,5.4-3.8
						c1.4,0.9,0.8,3.2,0.9,4.6c0.2,2.8,3.2,2.1,5.2,2.8C71.1,508,67.9,510.8,65.7,512z"/>
					<path class="st5" d="M77.3,508.3l-0.3-0.1c-2,0.7-4.1,1.2-6.2,2c-1.6,0.6-3.5,1.4-4.7,2.6c-1.3,1.3-1.1,2.4-1.1,4.1
						c0,1.8-0.9,4.8-3.4,3.3c-1.3-0.8-2.5-3.2-4.3-3c-1.4,0.2-2.8,0.8-4.1,1.2c-0.9,0.3-5.2,2.3-6,0.7c-0.9-1.8,1.6-5.1,2.4-6.5
						c1.1-2.1,1.3-3.6-0.2-5.7c-0.9-1.3-1.9-2.6-2.4-4.1c-0.3-0.9-0.4-1.8-0.1-2.5l-3.8-0.4c-0.1,0-0.2,0-0.3,0.1
						c-0.2,0.1-0.3,0.4-0.1,0.6l0,0l6.4,10.2l-4.8,11l0,0c0,0.1,0,0.2,0,0.3c0.1,0.2,0.3,0.3,0.5,0.3l11.7-3l9.1,7.9c0,0,0,0,0.1,0
						c0.1,0,0.1-0.1,0.1-0.1l1-12l10.5-6c0.1,0,0.1-0.1,0.2-0.2C77.6,508.6,77.5,508.3,77.3,508.3z"/>
					<path class="st6" d="M60.2,500c-1.2,0-2.1,1-2.8,1.9c-0.4,0.5-0.7,1-1,1.6c-0.1,0.2-0.3,0.4-0.4,0.7c0,0,0,0,0,0
						c-1.3-0.4-2.6-1-4-1c-0.9,0-2.2,0.1-2.5,1.1c0,0.1,0.1,0.1,0.1,0.1c2.1-0.9,4.1,0.5,6.2,0.9c0.2,0.1,0.4,0,0.5-0.2c0,0,0,0,0,0
						c0.8,0,1.2-1.6,1.5-2.2c0.6-1.1,1.2-2.3,2.4-2.8C60.3,500.1,60.3,500,60.2,500z"/>
					<path class="st6" d="M68,508.5c0-0.2-0.2-0.4-0.3-0.5c-0.3-0.5-1-0.9-1.5-1c-0.2-0.1-0.4-0.1-0.7-0.2c-0.6-0.2-1.3-0.3-1.9-0.5
						c-1.3-0.4-2-1.1-2.1-2.5c0-0.1-0.1-0.1-0.1,0c-0.3,1,0,2.1,0.7,2.8c0,0,0,0.1,0.1,0.1c0,0,0,0,0.1,0c0.4,0.4,1,0.5,1.6,0.7
						c0.4,0.1,0.7,0.1,1.1,0.1c0.2,0,0.4,0.1,0.6,0.1c0.3,0.1,0.5,0.3,0.8,0.4c0,0,0,0,0,0c0,0.1,0,0.1,0.1,0.2
						c0.2,0.2,0.6,0.3,0.7,0.6c0,0.3-0.3,0.7-0.4,0.9c-0.2,0.3-0.6,0.6-0.9,0.9c-0.3,0.2-0.5,0.5-0.8,0.6c0,0,0,0.1,0,0.1
						c0.9-0.4,1.8-0.8,2.5-1.5C67.9,509.5,68.1,509,68,508.5z"/>
					<path class="st6" d="M54.8,512c-0.4-0.7-1-0.5-1.5-0.1c-0.3,0.1-0.6,0.5-0.8,0.8c-0.3,0.4-0.6,0.9-0.8,1.4
						c-0.1,0.3,0,0.5,0.3,0.6c0.7,0.2,1.6-0.2,2.1-0.6C54.8,513.5,55.2,512.8,54.8,512z"/>
					<path class="st6" d="M55.4,509.6c-0.1,0-0.3,0-0.4,0c-0.2,0-0.3,0.2-0.4,0.4c-0.1,0.1-0.2,0.2-0.2,0.4
						c-0.1,0.3,0.3,0.5,0.5,0.4c0.4-0.1,0.5-0.3,0.7-0.5C55.9,510.1,55.7,509.7,55.4,509.6z"/>
					<path class="st6" d="M62.6,514.7c0-0.2-0.1-0.3-0.3-0.3c-0.1,0-0.1,0-0.2,0c-0.1,0-0.3,0-0.4,0.1c-0.2,0.3-0.3,0.7-0.2,1
						c0,0.3,0.1,0.6,0.4,0.6C62.6,516.1,62.7,515.2,62.6,514.7z"/>
					<path class="st6" d="M61.4,501.7c-0.5,0-0.4,0.8,0.1,0.8C61.9,502.5,61.9,501.7,61.4,501.7z"/>
				</g>
				<g>
					<g>
						<path class="st2" d="M670,189.9c0.1-0.2,0.1-0.5-0.2-0.7l-12.9-7.3l-1.3-14.8c0,0,0,0,0,0c0,0-0.1,0-0.1,0l-11.3,9.7
							l-14.4-3.8c-0.1,0-0.2,0-0.4,0c-0.3,0.1-0.4,0.4-0.3,0.7l0,0l5.9,13.5l-7.8,12.5l0,0c-0.1,0.1-0.1,0.2-0.1,0.3
							c0,0.3,0.3,0.5,0.5,0.4l14.8-1.6l9.7,11.2c0,0,0,0,0.1,0.1c0.1,0,0.2,0,0.2-0.1l3.3-14.5l13.8-5.4
							C669.8,190,669.9,190,670,189.9z"/>
						<path class="st3" d="M643.2,197.3L643.2,197.3l-12.9,1.1l6.8-11c0.1-0.1,0.1-0.3,0-0.4l-5.1-11.8l12.5,2.9l0,0
							c0.1,0,0.2,0,0.2-0.1l10.1-9.3l0.8,13.7c0,0.1,0,0.2,0.1,0.2l0,0l11.1,6.7l-11.9,5l0,0c-0.1,0-0.2,0.1-0.2,0.2l-2.8,13.2
							l-8.6-10.4C643.4,197.3,643.3,197.3,643.2,197.3z"/>
					</g>
					<path class="st4" d="M669.8,189.2l-12.9-7.3l-1.3-14.8c0,0,0,0,0,0c0,0-0.1,0-0.1,0l-11.3,9.7l-14.4-3.8c-0.1,0-0.2,0-0.4,0
						c-0.3,0.1-0.4,0.4-0.3,0.7l0,0l5.9,13.5l-7.8,12.5l0,0c-0.1,0.1-0.1,0.2-0.1,0.3c0,0.3,0.3,0.5,0.5,0.4l14.8-1.6l9.7,11.2
						c0,0,0,0,0.1,0.1c0.1,0,0.2,0,0.2-0.1l3.3-14.5l13.8-5.4c0.1,0,0.2-0.1,0.2-0.2C670.1,189.6,670,189.3,669.8,189.2z
						 M655.1,191.7c-0.7,0.3-1.7,0.5-2.2,1c-1.4,1.2-1,2.1-1.3,3.4c-0.1,0.8-0.3,1.7-0.9,2.2c-1,0.8-1.9,0.4-2.7-0.4
						c-1.7-1.7-2.4-5-5.5-4.4c-1.9,0.4-3.7,1.3-5.7,1.4c-0.9,0.1-1.8-0.4-1.8-1.4c0-1.6,1.4-2.8,2.5-3.8c1.6-1.5,3-2.9,1.2-5.2
						c-0.6-0.8-1.3-1.7-1.9-2.5c-0.6-0.9-1.8-2.5-0.9-3.6c1.5-1.9,6.8,0.7,8.8,0.9c0,0,0,0,0,0c1.6-1.4,5-5.7,7.2-3.7
						c1.5,1.4,0.4,4.1,0.3,5.7c-0.2,3.4,3.5,3.1,5.8,4.3C662.4,187.8,657.9,190.6,655.1,191.7z"/>
					<path class="st5" d="M669.8,189.2l-0.4-0.2c-2.6,0.5-5.3,0.8-7.8,1.4c-2.1,0.5-4.4,1-6.2,2.3c-1.7,1.3-1.8,2.8-2.1,4.8
						c-0.3,2.2-1.9,5.7-4.7,3.4c-1.5-1.2-2.5-4.3-4.6-4.4c-1.7-0.1-3.5,0.5-5.2,0.8c-1.2,0.2-6.8,1.9-7.4-0.2
						c-0.8-2.4,2.9-5.9,4.1-7.5c1.8-2.3,2.2-4.2,0.8-7c-0.8-1.7-1.8-3.4-2.1-5.4c-0.2-1.1-0.1-2.3,0.3-3l-4.6-1.2
						c-0.1,0-0.2,0-0.4,0c-0.3,0.1-0.4,0.4-0.3,0.7l0,0l5.9,13.5l-7.8,12.5l0,0c-0.1,0.1-0.1,0.2-0.1,0.3c0,0.3,0.3,0.5,0.5,0.4
						l14.8-1.6l9.7,11.2c0,0,0,0,0.1,0.1c0.1,0,0.2,0,0.2-0.1l3.3-14.5l13.8-5.4c0.1,0,0.2-0.1,0.2-0.2
						C670.1,189.6,670,189.3,669.8,189.2z"/>
					<path class="st6" d="M650.5,176.1c-1.5-0.2-2.7,0.9-3.7,1.8c-0.5,0.5-1,1.1-1.5,1.7c-0.2,0.2-0.4,0.5-0.6,0.7c0,0,0,0,0,0
						c-1.5-0.7-3-1.7-4.7-1.9c-1.1-0.2-2.7-0.2-3.2,0.9c0,0.1,0.1,0.2,0.1,0.1c2.7-0.7,4.9,1.3,7.3,2.2c0.3,0.1,0.5,0,0.7-0.1
						c0,0,0,0,0,0c0.9,0.2,1.8-1.8,2.2-2.4c0.9-1.3,1.9-2.5,3.4-3C650.6,176.3,650.6,176.1,650.5,176.1z"/>
					<path class="st6" d="M658.5,187.9c0-0.2-0.1-0.5-0.3-0.7c-0.3-0.7-1-1.2-1.6-1.5c-0.3-0.1-0.5-0.2-0.8-0.3
						c-0.7-0.3-1.5-0.6-2.2-0.9c-1.5-0.7-2.3-1.7-2.2-3.4c0-0.1-0.1-0.1-0.2,0c-0.5,1.2-0.4,2.5,0.4,3.5c0,0.1,0,0.1,0.1,0.1
						c0,0,0.1,0,0.1,0c0.5,0.5,1.2,0.8,1.8,1.1c0.4,0.2,0.9,0.3,1.3,0.4c0.2,0.1,0.5,0.1,0.7,0.2c0.3,0.2,0.6,0.4,0.9,0.6
						c0,0,0,0,0,0c0,0.1,0,0.1,0.1,0.2c0.2,0.3,0.7,0.5,0.7,0.9c0,0.3-0.5,0.7-0.7,1c-0.3,0.4-0.8,0.6-1.3,0.9
						c-0.4,0.2-0.7,0.5-1.1,0.6c-0.1,0,0,0.1,0,0.1c1.1-0.3,2.3-0.6,3.3-1.3C658.1,189,658.5,188.5,658.5,187.9z"/>
					<path class="st6" d="M641.8,189.7c-0.3-0.9-1.2-0.7-1.8-0.4c-0.4,0.1-0.8,0.5-1.2,0.8c-0.5,0.4-0.9,1-1.2,1.5
						c-0.2,0.3-0.1,0.7,0.3,0.8c0.8,0.4,1.9,0,2.7-0.4C641.5,191.6,642.2,190.8,641.8,189.7z"/>
					<path class="st6" d="M643,187c-0.2,0-0.3-0.1-0.5-0.1c-0.3,0-0.4,0.2-0.5,0.4c-0.1,0.1-0.2,0.2-0.3,0.4
						c-0.2,0.4,0.2,0.7,0.6,0.6c0.5,0,0.6-0.2,1-0.5C643.5,187.7,643.4,187.1,643,187z"/>
					<path class="st6" d="M650.9,194.4c0-0.2-0.1-0.4-0.3-0.5c-0.1,0-0.2-0.1-0.2-0.1c-0.2-0.1-0.4,0-0.5,0.1
						c-0.3,0.3-0.5,0.7-0.5,1.1c-0.1,0.4,0,0.7,0.4,0.8C650.6,196.1,650.9,195,650.9,194.4z"/>
					<path class="st6" d="M651.6,178.4c-0.6-0.1-0.7,0.9-0.1,1C652.2,179.5,652.2,178.5,651.6,178.4z"/>
				</g>
				<g>
					<g>
						<path class="st2" d="M751.7,258.7c0.2-0.2,0.1-0.5,0-0.7l-10.7-9.1l1.5-13.9c0,0,0,0,0,0c0,0,0,0-0.1,0l-12.2,6.9l-12.6-6.1
							c-0.1,0-0.2-0.1-0.3,0c-0.3,0.1-0.5,0.3-0.4,0.6l0,0l3,13.6l-9.4,10.2l0,0c-0.1,0.1-0.1,0.2-0.1,0.3c0,0.3,0.2,0.5,0.4,0.5
							l13.9,1.2l6.9,12.1c0,0,0,0.1,0.1,0.1c0.1,0,0.2,0,0.2-0.1l5.7-12.8l13.8-2.5C751.5,258.8,751.6,258.8,751.7,258.7z"/>
						<path class="st3" d="M725.5,260.7L725.5,260.7l-12.1-1.3l8.3-8.9c0.1-0.1,0.1-0.3,0.1-0.4l-2.6-11.8l11.1,4.9l0,0
							c0.1,0,0.2,0,0.2,0l11-6.8l-1.7,12.8c0,0.1,0,0.2,0.1,0.2l0,0l9,8.2l-11.9,2.5l0,0c-0.1,0-0.2,0.1-0.2,0.2l-4.9,11.8
							l-6.1-11.2C725.7,260.8,725.6,260.8,725.5,260.7z"/>
					</g>
					<path class="st4" d="M751.6,258l-10.7-9.1l1.5-13.9c0,0,0,0,0,0c0,0,0,0-0.1,0l-12.2,6.9l-12.6-6.1c-0.1,0-0.2-0.1-0.3,0
						c-0.3,0.1-0.5,0.3-0.4,0.6l0,0l3,13.6l-9.4,10.2l0,0c-0.1,0.1-0.1,0.2-0.1,0.3c0,0.3,0.2,0.5,0.4,0.5l13.9,1.2l6.9,12.1
						c0,0,0,0.1,0.1,0.1c0.1,0,0.2,0,0.2-0.1l5.7-12.8l13.8-2.5c0.1,0,0.2-0.1,0.3-0.2C751.8,258.5,751.8,258.2,751.6,258z
						 M737.6,257.7c-0.7,0.1-1.6,0.2-2.3,0.5c-1.5,0.8-1.3,1.7-1.8,3c-0.3,0.7-0.6,1.5-1.3,1.9c-1.1,0.6-1.8,0-2.4-0.9
						c-1.3-1.9-1.4-5.1-4.3-5.1c-1.9,0-3.7,0.5-5.5,0.3c-0.8-0.1-1.6-0.7-1.4-1.6c0.3-1.5,1.8-2.3,3-3.1c1.8-1.1,3.3-2.1,2-4.6
						c-0.5-0.9-0.9-1.8-1.3-2.7c-0.4-1-1.2-2.6-0.2-3.5c1.8-1.5,6.2,1.9,8,2.4c0,0,0,0,0,0c1.7-1,5.7-4.4,7.3-2.1
						c1.2,1.5-0.4,3.8-0.7,5.3c-0.8,3.1,2.7,3.5,4.6,5C745,255.4,740.3,257.2,737.6,257.7z"/>
					<path class="st5" d="M751.6,258l-0.3-0.3c-2.5,0-5-0.2-7.5-0.2c-2,0.1-4.3,0.2-6.1,1c-1.8,0.9-2.2,2.2-2.8,4
						c-0.7,2-2.8,4.9-4.9,2.3c-1.1-1.4-1.6-4.5-3.5-4.9c-1.6-0.4-3.3-0.2-4.9-0.2c-1.2,0-6.6,0.5-6.8-1.5c-0.3-2.3,3.7-4.9,5.2-6.2
						c2-1.8,2.8-3.5,2-6.3c-0.5-1.8-1.1-3.5-1-5.4c0-1.1,0.3-2.1,0.8-2.8l-4-2c-0.1,0-0.2-0.1-0.3,0c-0.3,0.1-0.5,0.3-0.4,0.6l0,0
						l3,13.6l-9.4,10.2l0,0c-0.1,0.1-0.1,0.2-0.1,0.3c0,0.3,0.2,0.5,0.4,0.5l13.9,1.2l6.9,12.1c0,0,0,0.1,0.1,0.1
						c0.1,0,0.2,0,0.2-0.1l5.7-12.8l13.8-2.5c0.1,0,0.2-0.1,0.3-0.2C751.8,258.5,751.8,258.2,751.6,258z"/>
					<path class="st6" d="M736.1,242.4c-1.3-0.5-2.7,0.3-3.7,1c-0.6,0.4-1.2,0.9-1.7,1.3c-0.2,0.2-0.5,0.3-0.7,0.6c0,0,0,0,0,0
						c-1.3-0.9-2.5-2.1-4-2.6c-1-0.3-2.5-0.7-3.2,0.3c0,0.1,0,0.2,0.1,0.2c2.6-0.2,4.3,2.1,6.4,3.4c0.3,0.1,0.5,0.1,0.7,0
						c0,0,0,0,0,0c0.8,0.3,2-1.3,2.5-1.8c1-1,2.2-2,3.7-2.1C736.2,242.6,736.2,242.5,736.1,242.4z"/>
					<path class="st6" d="M741.3,254.8c0-0.2,0-0.5-0.1-0.7c-0.2-0.7-0.7-1.3-1.2-1.7c-0.2-0.2-0.4-0.3-0.7-0.4
						c-0.6-0.5-1.3-0.8-1.9-1.3c-1.2-0.9-1.8-2-1.4-3.5c0-0.1-0.1-0.1-0.2-0.1c-0.7,1-0.8,2.2-0.2,3.3c0,0,0,0.1,0,0.1
						c0,0,0,0,0.1,0.1c0.3,0.6,0.9,1,1.5,1.3c0.4,0.3,0.8,0.4,1.2,0.6c0.2,0.1,0.4,0.2,0.6,0.3c0.2,0.2,0.5,0.5,0.7,0.7c0,0,0,0,0,0
						c0,0.1,0,0.1,0,0.2c0.1,0.3,0.6,0.6,0.5,0.9c-0.1,0.3-0.6,0.6-0.8,0.8c-0.4,0.3-0.9,0.4-1.3,0.6c-0.4,0.1-0.7,0.3-1.1,0.4
						c0,0-0.1,0.1,0,0.1c1.1-0.1,2.3-0.1,3.3-0.6C740.8,255.8,741.3,255.4,741.3,254.8z"/>
					<path class="st6" d="M725.6,253.5c-0.2-0.9-1-0.9-1.6-0.7c-0.4,0-0.9,0.3-1.2,0.5c-0.5,0.3-1,0.7-1.4,1.2
						c-0.2,0.3-0.2,0.6,0.1,0.8c0.7,0.5,1.8,0.3,2.6,0.1C725,255.2,725.8,254.5,725.6,253.5z"/>
					<path class="st6" d="M727.2,251.2c-0.1-0.1-0.3-0.1-0.4-0.2c-0.2,0-0.4,0.1-0.5,0.3c-0.1,0.1-0.3,0.2-0.4,0.3
						c-0.2,0.3,0.1,0.7,0.4,0.7c0.4,0,0.6-0.1,1-0.3C727.5,251.9,727.5,251.3,727.2,251.2z"/>
					<path class="st6" d="M733.1,259.4c0-0.2,0-0.4-0.2-0.5c-0.1,0-0.1-0.1-0.2-0.1c-0.1-0.1-0.3-0.1-0.5,0c-0.3,0.2-0.6,0.6-0.6,1
						c-0.1,0.3-0.1,0.6,0.3,0.8C732.6,260.9,733,260,733.1,259.4z"/>
					<path class="st6" d="M736.7,244.8c-0.6-0.2-0.8,0.7-0.2,0.9C737,245.9,737.3,245,736.7,244.8z"/>
				</g>
				<g>
					<g>
						<path class="st2" d="M128.8,305.7c0-0.3-0.3-0.5-0.5-0.5l-14.9,1.1l-9.4-11.6c0,0,0,0,0,0c0,0-0.1,0-0.1,0l-4,14.4L85.7,314
							c-0.1,0-0.2,0.1-0.3,0.2c-0.2,0.3-0.1,0.6,0.2,0.8l0,0l12.5,7.9l0.5,14.8v0c0,0.1,0,0.2,0.1,0.3c0.2,0.2,0.5,0.2,0.7,0.1
							l11.4-9.6l14.4,3.9c0,0,0.1,0,0.1,0c0.1,0,0.1-0.1,0.1-0.2l-5.3-13.9l8.5-12.3C128.7,305.9,128.8,305.8,128.8,305.7z"/>
						<path class="st3" d="M110.6,327L110.6,327l-10.1,8.2l-0.4-13c0-0.2-0.1-0.3-0.2-0.4l-10.9-7l12-4.6l0,0c0.1,0,0.1-0.1,0.2-0.2
							l3.2-13.4l8.3,11c0,0.1,0.1,0.1,0.2,0.1l0,0l13-0.6l-7.2,10.9l0,0c-0.1,0.1-0.1,0.2,0,0.3l5.1,12.6l-13-3.9
							C110.7,326.9,110.6,326.9,110.6,327z"/>
					</g>
					<path class="st4" d="M128.2,305.3l-14.9,1.1l-9.4-11.6c0,0,0,0,0,0c0,0-0.1,0-0.1,0l-4,14.4L85.7,314c-0.1,0-0.2,0.1-0.3,0.2
						c-0.2,0.3-0.1,0.6,0.2,0.8l0,0l12.5,7.9l0.5,14.8v0c0,0.1,0,0.2,0.1,0.3c0.2,0.2,0.5,0.2,0.7,0.1l11.4-9.6l14.4,3.9
						c0,0,0.1,0,0.1,0c0.1,0,0.1-0.1,0.1-0.2l-5.3-13.9l8.5-12.3c0.1-0.1,0.1-0.2,0.1-0.3C128.7,305.4,128.5,305.2,128.2,305.3z
						 M117.4,315.6c-0.4,0.6-1.1,1.4-1.3,2.1c-0.5,1.7,0.3,2.3,0.9,3.6c0.3,0.7,0.7,1.6,0.5,2.4c-0.4,1.2-1.3,1.4-2.5,1.2
						c-2.4-0.5-4.8-2.8-7.1-0.6c-1.4,1.4-2.4,3.2-4,4.4c-0.7,0.5-1.7,0.7-2.2-0.2c-0.9-1.4-0.4-3.1-0.1-4.6c0.5-2.2,0.9-4.1-2-5
						c-1-0.3-2.1-0.6-3-1c-1.1-0.4-2.9-1.1-2.8-2.5c0.2-2.5,6.1-3.3,7.8-4.2c0,0,0,0,0,0c0.6-2,1-7.6,3.9-7.1c2,0.3,2.6,3.2,3.5,4.6
						c1.7,2.9,4.7,0.6,7.2,0.3C121.3,308.2,119.1,313.1,117.4,315.6z"/>
					<path class="st5" d="M128.2,305.3l-0.4,0c-1.9,1.9-4,3.6-5.8,5.5c-1.5,1.6-3.1,3.4-3.8,5.4c-0.7,2.1,0,3.3,0.9,5.2
						c1,2,1.6,5.8-2,5.4c-1.9-0.2-4.5-2.2-6.4-1.1c-1.5,0.9-2.7,2.3-3.9,3.6c-0.9,0.9-4.6,5.3-6.3,4c-2-1.6-0.9-6.5-0.8-8.6
						c0.2-2.9-0.5-4.7-3.2-6.3c-1.7-1-3.5-1.8-4.8-3.3c-0.8-0.8-1.4-1.8-1.5-2.7l-4.5,1.6c-0.1,0-0.2,0.1-0.3,0.2
						c-0.2,0.3-0.1,0.6,0.2,0.8l0,0l12.5,7.9l0.5,14.8v0c0,0.1,0,0.2,0.1,0.3c0.2,0.2,0.5,0.2,0.7,0.1l11.4-9.6l14.4,3.9
						c0,0,0.1,0,0.1,0c0.1,0,0.1-0.1,0.1-0.2l-5.3-13.9l8.5-12.3c0.1-0.1,0.1-0.2,0.1-0.3C128.7,305.4,128.5,305.2,128.2,305.3z"/>
					<path class="st6" d="M104.8,305.2c-1.4,0.6-1.8,2.3-2,3.6c-0.1,0.7-0.2,1.5-0.3,2.3c0,0.3-0.1,0.6-0.1,1c0,0,0,0,0,0
						c-1.6,0.3-3.4,0.3-5,1c-1,0.5-2.4,1.3-2.2,2.6c0,0.1,0.1,0.1,0.2,0.1c1.8-2.1,4.8-1.6,7.3-2.3c0.3-0.1,0.4-0.3,0.5-0.5
						c0,0,0,0,0,0c0.8-0.4,0.5-2.5,0.5-3.2c0-1.5,0.1-3.2,1.2-4.4C104.9,305.2,104.9,305.1,104.8,305.2z"/>
					<path class="st6" d="M118,310.5c-0.2-0.2-0.4-0.3-0.6-0.4c-0.6-0.4-1.6-0.4-2.2-0.3c-0.3,0-0.6,0.1-0.8,0.2
						c-0.8,0.1-1.6,0.3-2.4,0.5c-1.6,0.2-2.8-0.1-3.7-1.6c-0.1-0.1-0.2,0-0.2,0.1c0.3,1.3,1.1,2.3,2.3,2.7c0,0.1,0.1,0.1,0.1,0.1
						c0,0,0.1,0,0.1,0c0.7,0.2,1.4,0,2.1-0.1c0.5-0.1,0.9-0.3,1.3-0.4c0.2-0.1,0.5-0.2,0.7-0.2c0.4,0,0.7,0,1.1,0c0,0,0,0,0,0
						c0,0.1,0.1,0.1,0.2,0.1c0.3,0.1,0.9,0,1.1,0.3c0.2,0.3,0,0.9,0,1.2c-0.1,0.5-0.3,1-0.6,1.5c-0.2,0.4-0.3,0.8-0.5,1.1
						c0,0,0,0.1,0.1,0.1c0.8-0.9,1.6-1.8,2-3C118.4,311.7,118.4,311,118,310.5z"/>
					<path class="st6" d="M105.2,321.4c-0.8-0.5-1.4,0-1.7,0.7c-0.3,0.3-0.4,0.9-0.5,1.3c-0.2,0.6-0.2,1.3-0.1,1.9
						c0,0.4,0.3,0.6,0.7,0.5c0.9-0.2,1.6-1.1,2-1.8C106,323.2,106.1,322,105.2,321.4z"/>
					<path class="st6" d="M104.6,318.5c-0.2,0.1-0.3,0.1-0.4,0.2c-0.2,0.2-0.3,0.4-0.2,0.6c-0.1,0.2-0.1,0.3,0,0.6
						c0.1,0.4,0.6,0.4,0.8,0.2c0.4-0.3,0.4-0.6,0.5-1C105.4,318.8,105,318.3,104.6,318.5z"/>
					<path class="st6" d="M115.3,320.2c-0.1-0.2-0.3-0.3-0.5-0.2c-0.1,0-0.2,0-0.2,0.1c-0.2,0-0.3,0.2-0.4,0.4
						c-0.1,0.4,0,0.9,0.2,1.2c0.1,0.3,0.4,0.6,0.8,0.4C116,321.8,115.7,320.7,115.3,320.2z"/>
					<path class="st6" d="M107,306.5c-0.6,0.3-0.1,1.1,0.5,0.9C108.1,307.1,107.6,306.2,107,306.5z"/>
				</g>
				<g>
					<g>
						<path class="st2" d="M322.9,177.7c0-0.2-0.1-0.3-0.2-0.3l-8.8-1.3l-3.9-7.9c0,0,0,0,0,0c0,0,0,0,0,0l-4.2,7.8l-8.8,1
							c-0.1,0-0.1,0-0.2,0.1c-0.1,0.1-0.1,0.3,0,0.5l0,0l6.2,6.2l-1.6,8.6l0,0c0,0.1,0,0.1,0,0.2c0.1,0.1,0.3,0.2,0.4,0.1l7.8-4.1
							l7.8,4.1c0,0,0,0,0.1,0c0.1,0,0.1-0.1,0.1-0.1l-1.3-8.7l6.5-6C322.9,177.9,322.9,177.8,322.9,177.7z"/>
						<path class="st3" d="M309.7,187.7L309.7,187.7l-6.9,3.4l1.4-7.6c0-0.1,0-0.2-0.1-0.3l-5.4-5.4l7.6-1.1l0,0
							c0.1,0,0.1,0,0.1-0.1l3.6-7.3l3.4,7.4c0,0,0.1,0.1,0.1,0.1l0,0l7.6,1.3l-5.5,5.4l0,0c0,0-0.1,0.1-0.1,0.2l1.3,7.9l-7-3.9
							C309.8,187.7,309.7,187.6,309.7,187.7z"/>
					</g>
					<path class="st4" d="M322.7,177.4l-8.8-1.3l-3.9-7.9c0,0,0,0,0,0c0,0,0,0,0,0l-4.2,7.8l-8.8,1c-0.1,0-0.1,0-0.2,0.1
						c-0.1,0.1-0.1,0.3,0,0.5l0,0l6.2,6.2l-1.6,8.6l0,0c0,0.1,0,0.1,0,0.2c0.1,0.1,0.3,0.2,0.4,0.1l7.8-4.1l7.8,4.1c0,0,0,0,0.1,0
						c0.1,0,0.1-0.1,0.1-0.1l-1.3-8.7l6.5-6c0,0,0.1-0.1,0.1-0.2C323,177.6,322.8,177.4,322.7,177.4z M315.1,182
						c-0.3,0.3-0.8,0.7-1,1.1c-0.5,0.9-0.1,1.4,0,2.2c0.1,0.5,0.2,1,0,1.4c-0.4,0.7-0.9,0.6-1.6,0.3c-1.3-0.6-2.4-2.2-4-1.3
						c-1,0.6-1.8,1.5-2.9,2c-0.5,0.2-1.1,0.2-1.3-0.4c-0.3-0.9,0.2-1.9,0.6-2.7c0.6-1.2,1-2.3-0.5-3.2c-0.5-0.3-1.1-0.6-1.6-1
						c-0.6-0.4-1.5-1-1.3-1.8c0.4-1.4,3.9-1.1,5.1-1.4c0,0,0,0,0,0c0.6-1.1,1.5-4.2,3.2-3.6c1.1,0.4,1.1,2.2,1.4,3.1
						c0.6,1.9,2.6,1,4.1,1.1C318.3,178.2,316.4,180.8,315.1,182z"/>
					<path class="st5" d="M322.7,177.4l-0.3,0c-1.3,0.8-2.7,1.6-4,2.4c-1,0.7-2.2,1.5-2.9,2.6c-0.7,1.1-0.4,1.9-0.1,3.1
						c0.3,1.3,0.2,3.6-1.9,2.9c-1.1-0.4-2.3-1.9-3.5-1.4c-1,0.3-1.8,1-2.7,1.6c-0.6,0.4-3.3,2.5-4.2,1.5c-0.9-1.2,0.3-3.9,0.7-5.1
						c0.5-1.7,0.3-2.8-1.1-4.1c-0.8-0.8-1.8-1.5-2.4-2.5c-0.3-0.6-0.6-1.2-0.5-1.7L297,177c-0.1,0-0.1,0-0.2,0.1
						c-0.1,0.1-0.1,0.3,0,0.5l0,0l6.2,6.2l-1.6,8.6l0,0c0,0.1,0,0.1,0,0.2c0.1,0.1,0.3,0.2,0.4,0.1l7.8-4.1l7.8,4.1c0,0,0,0,0.1,0
						c0.1,0,0.1-0.1,0.1-0.1l-1.3-8.7l6.5-6c0,0,0.1-0.1,0.1-0.2C323,177.6,322.8,177.4,322.7,177.4z"/>
					<path class="st6" d="M309.2,174.3c-0.9,0.2-1.3,1.1-1.6,1.8c-0.2,0.4-0.3,0.8-0.5,1.3c-0.1,0.2-0.1,0.4-0.2,0.5c0,0,0,0,0,0
						c-1,0-2-0.3-3,0c-0.6,0.1-1.6,0.5-1.6,1.2c0,0.1,0.1,0.1,0.1,0.1c1.3-1,3-0.3,4.5-0.4c0.2,0,0.3-0.1,0.4-0.2c0,0,0,0,0,0
						c0.5-0.1,0.6-1.4,0.7-1.8C308.2,175.9,308.4,175,309.2,174.3C309.2,174.4,309.2,174.3,309.2,174.3z"/>
					<path class="st6" d="M316.1,179.1c-0.1-0.1-0.2-0.2-0.3-0.3c-0.3-0.3-0.8-0.5-1.2-0.5c-0.2,0-0.3,0-0.5,0c-0.5,0-1,0-1.4,0
						c-1-0.1-1.6-0.4-1.9-1.4c0-0.1-0.1,0-0.1,0c0,0.8,0.3,1.5,1,1.9c0,0,0,0.1,0.1,0.1c0,0,0,0,0.1,0c0.4,0.2,0.8,0.2,1.2,0.2
						c0.3,0,0.6,0,0.8-0.1c0.1,0,0.3,0,0.4,0c0.2,0,0.4,0.1,0.6,0.1c0,0,0,0,0,0c0,0,0,0.1,0.1,0.1c0.2,0.1,0.5,0.1,0.6,0.3
						c0.1,0.2-0.1,0.5-0.2,0.7c-0.1,0.3-0.3,0.5-0.5,0.8c-0.2,0.2-0.3,0.4-0.5,0.6c0,0,0,0.1,0,0c0.6-0.4,1.2-0.8,1.6-1.4
						C316.2,179.9,316.3,179.5,316.1,179.1z"/>
					<path class="st6" d="M307.3,183.8c-0.4-0.4-0.8-0.2-1.1,0.2c-0.2,0.2-0.4,0.5-0.5,0.7c-0.2,0.3-0.3,0.7-0.3,1.1
						c0,0.2,0.1,0.4,0.3,0.4c0.5,0,1.1-0.4,1.4-0.8C307.5,184.9,307.7,184.3,307.3,183.8z"/>
					<path class="st6" d="M307.4,182c-0.1,0-0.2,0-0.3,0.1c-0.1,0.1-0.2,0.2-0.2,0.3c-0.1,0.1-0.1,0.2-0.1,0.3
						c0,0.2,0.3,0.3,0.4,0.2c0.2-0.1,0.3-0.3,0.4-0.5C307.8,182.3,307.6,182,307.4,182z"/>
					<path class="st6" d="M313.3,184.4c0-0.1-0.1-0.2-0.3-0.2c0,0-0.1,0-0.1,0c-0.1,0-0.2,0.1-0.3,0.2c-0.1,0.2-0.1,0.5,0,0.7
						c0,0.2,0.1,0.4,0.4,0.3C313.5,185.4,313.5,184.7,313.3,184.4z"/>
					<path class="st6" d="M310.3,175.4c-0.4,0.1-0.2,0.6,0.2,0.6C310.8,175.9,310.6,175.3,310.3,175.4z"/>
				</g>
				<g>
					<g>
						<path class="st2" d="M743.6,422.5c0-0.2-0.1-0.3-0.3-0.3l-8.9,0.1l-5.1-7.3c0,0,0,0,0,0c0,0,0,0,0,0l-2.9,8.4l-8.6,2.3
							c-0.1,0-0.1,0.1-0.2,0.1c-0.1,0.1-0.1,0.3,0.1,0.5l0,0l7.1,5.2l-0.3,8.8l0,0c0,0.1,0,0.1,0.1,0.2c0.1,0.1,0.3,0.2,0.4,0.1
							l7.1-5.2l8.4,2.9c0,0,0,0,0.1,0c0.1,0,0.1-0.1,0.1-0.1l-2.6-8.5l5.5-6.9C743.6,422.6,743.6,422.5,743.6,422.5z"/>
						<path class="st3" d="M732,434.3L732,434.3l-6.3,4.4l0.3-7.7c0-0.1,0-0.2-0.1-0.2l-6.2-4.6l7.3-2.3l0,0c0,0,0.1-0.1,0.1-0.1
							l2.5-7.8l4.5,6.8c0,0,0.1,0.1,0.1,0.1h0l7.7,0.2l-4.7,6.2l0,0c0,0,0,0.1,0,0.2l2.5,7.7l-7.6-2.8
							C732.1,434.3,732,434.3,732,434.3z"/>
					</g>
					<path class="st4" d="M743.3,422.2l-8.9,0.1l-5.1-7.3c0,0,0,0,0,0c0,0,0,0,0,0l-2.9,8.4l-8.6,2.3c-0.1,0-0.1,0.1-0.2,0.1
						c-0.1,0.1-0.1,0.3,0.1,0.5l0,0l7.1,5.2l-0.3,8.8l0,0c0,0.1,0,0.1,0.1,0.2c0.1,0.1,0.3,0.2,0.4,0.1l7.1-5.2l8.4,2.9
						c0,0,0,0,0.1,0c0.1,0,0.1-0.1,0.1-0.1l-2.6-8.5l5.5-6.9c0-0.1,0.1-0.1,0.1-0.2C743.6,422.3,743.5,422.2,743.3,422.2z
						 M736.5,427.8c-0.3,0.4-0.7,0.8-0.8,1.2c-0.4,1,0.1,1.4,0.4,2.2c0.2,0.4,0.4,1,0.2,1.4c-0.3,0.7-0.8,0.8-1.5,0.6
						c-1.4-0.4-2.8-1.9-4.2-0.6c-0.9,0.8-1.5,1.8-2.5,2.5c-0.4,0.3-1,0.3-1.3-0.2c-0.5-0.9-0.1-1.9,0.1-2.7c0.4-1.3,0.7-2.4-1-3.1
						c-0.6-0.2-1.2-0.5-1.8-0.7c-0.6-0.3-1.7-0.8-1.5-1.6c0.2-1.5,3.7-1.7,4.8-2.2c0,0,0,0,0,0c0.4-1.2,0.9-4.4,2.6-4.1
						c1.2,0.3,1.4,2,1.9,2.9c0.9,1.8,2.7,0.6,4.3,0.5C739.1,423.7,737.6,426.5,736.5,427.8z"/>
					<path class="st5" d="M743.3,422.2l-0.3,0c-1.2,1-2.5,2-3.6,3c-0.9,0.9-2,1.9-2.5,3.1c-0.5,1.2-0.1,2,0.3,3.1
						c0.5,1.2,0.7,3.5-1.4,3.1c-1.1-0.2-2.6-1.5-3.7-0.9c-0.9,0.5-1.7,1.3-2.4,2c-0.6,0.5-2.9,3-3.9,2.1c-1.1-1-0.3-3.9-0.1-5.1
						c0.2-1.7-0.1-2.8-1.7-3.9c-1-0.6-2-1.2-2.7-2.1c-0.4-0.5-0.8-1.1-0.8-1.6l-2.7,0.7c-0.1,0-0.1,0.1-0.2,0.1
						c-0.1,0.1-0.1,0.3,0.1,0.5l0,0l7.1,5.2l-0.3,8.8l0,0c0,0.1,0,0.1,0.1,0.2c0.1,0.1,0.3,0.2,0.4,0.1l7.1-5.2l8.4,2.9
						c0,0,0,0,0.1,0c0.1,0,0.1-0.1,0.1-0.1l-2.6-8.5l5.5-6.9c0-0.1,0.1-0.1,0.1-0.2C743.6,422.3,743.5,422.2,743.3,422.2z"/>
					<path class="st6" d="M729.4,421.2c-0.8,0.3-1.2,1.3-1.4,2.1c-0.1,0.4-0.2,0.9-0.3,1.3c0,0.2-0.1,0.4-0.1,0.6c0,0,0,0,0,0
						c-1,0.1-2.1,0-3,0.4c-0.6,0.2-1.5,0.7-1.4,1.5c0,0.1,0.1,0.1,0.1,0c1.2-1.2,2.9-0.8,4.4-1.1c0.2,0,0.3-0.1,0.3-0.3c0,0,0,0,0,0
						c0.5-0.2,0.4-1.5,0.4-1.9C728.7,422.9,728.8,422,729.4,421.2C729.5,421.2,729.5,421.2,729.4,421.2z"/>
					<path class="st6" d="M737.1,424.9c-0.1-0.1-0.2-0.2-0.3-0.3c-0.4-0.3-0.9-0.3-1.3-0.3c-0.2,0-0.3,0-0.5,0.1
						c-0.5,0-1,0.1-1.4,0.2c-1,0.1-1.7-0.2-2.1-1.1c0-0.1-0.1,0-0.1,0c0.1,0.8,0.5,1.4,1.3,1.7c0,0,0,0.1,0.1,0.1c0,0,0,0,0.1,0
						c0.4,0.1,0.9,0.1,1.3,0c0.3,0,0.5-0.1,0.8-0.2c0.1,0,0.3-0.1,0.4-0.1c0.2,0,0.4,0,0.6,0c0,0,0,0,0,0c0,0,0,0.1,0.1,0.1
						c0.2,0.1,0.5,0.1,0.6,0.2c0.1,0.2,0,0.5-0.1,0.7c-0.1,0.3-0.2,0.6-0.4,0.8c-0.1,0.2-0.2,0.4-0.4,0.6c0,0,0,0.1,0,0
						c0.5-0.5,1-1,1.3-1.7C737.2,425.6,737.3,425.2,737.1,424.9z"/>
					<path class="st6" d="M729,430.8c-0.4-0.3-0.8,0-1.1,0.4c-0.2,0.2-0.3,0.5-0.4,0.7c-0.1,0.4-0.2,0.8-0.2,1.1
						c0,0.2,0.2,0.4,0.4,0.3c0.5-0.1,1-0.6,1.3-1C729.4,431.9,729.5,431.2,729,430.8z"/>
					<path class="st6" d="M728.8,429.1c-0.1,0-0.2,0.1-0.3,0.1c-0.1,0.1-0.2,0.2-0.1,0.4c0,0.1-0.1,0.2,0,0.3c0,0.2,0.3,0.3,0.5,0.2
						c0.2-0.2,0.2-0.3,0.3-0.5C729.3,429.3,729,429,728.8,429.1z"/>
					<path class="st6" d="M735.1,430.5c-0.1-0.1-0.2-0.2-0.3-0.1c0,0-0.1,0-0.1,0c-0.1,0-0.2,0.1-0.2,0.2c-0.1,0.2-0.1,0.5,0.1,0.7
						c0.1,0.2,0.2,0.4,0.5,0.3C735.4,431.5,735.3,430.8,735.1,430.5z"/>
					<path class="st6" d="M730.7,422c-0.4,0.1-0.1,0.7,0.3,0.5C731.3,422.4,731,421.9,730.7,422z"/>
				</g>
				<g>
					<g>
						<path class="st2" d="M91.6,184.8c0.1-0.2,0-0.4-0.1-0.5l-9.7-5.5l-1-11.1c0,0,0,0,0,0c0,0,0,0-0.1,0l-8.5,7.3L61.4,172
							c-0.1,0-0.2,0-0.3,0c-0.2,0.1-0.3,0.3-0.2,0.5l0,0l4.4,10.2l-5.8,9.4l0,0c0,0.1-0.1,0.1-0.1,0.2c0,0.2,0.2,0.3,0.4,0.3
							l11.1-1.2l7.3,8.5c0,0,0,0,0.1,0c0.1,0,0.1,0,0.2-0.1L81,189l10.4-4.1C91.5,184.9,91.5,184.9,91.6,184.8z"/>
						<path class="st3" d="M71.4,190.4L71.4,190.4l-9.7,0.8l5.2-8.2c0.1-0.1,0.1-0.2,0-0.3l-3.8-8.9l9.4,2.2l0,0c0.1,0,0.1,0,0.2,0
							l7.6-7l0.6,10.3c0,0.1,0,0.1,0.1,0.1l0,0l8.3,5.1l-9,3.7l0,0c-0.1,0-0.1,0.1-0.1,0.2l-2.1,9.9l-6.5-7.9
							C71.6,190.4,71.5,190.4,71.4,190.4z"/>
					</g>
					<path class="st4" d="M91.4,184.3l-9.7-5.5l-1-11.1c0,0,0,0,0,0c0,0,0,0-0.1,0l-8.5,7.3L61.4,172c-0.1,0-0.2,0-0.3,0
						c-0.2,0.1-0.3,0.3-0.2,0.5l0,0l4.4,10.2l-5.8,9.4l0,0c0,0.1-0.1,0.1-0.1,0.2c0,0.2,0.2,0.3,0.4,0.3l11.1-1.2l7.3,8.5
						c0,0,0,0,0.1,0c0.1,0,0.1,0,0.2-0.1L81,189l10.4-4.1c0.1,0,0.1-0.1,0.2-0.2C91.7,184.6,91.6,184.4,91.4,184.3z M80.4,186.1
						c-0.5,0.2-1.2,0.4-1.7,0.8c-1,0.9-0.8,1.6-0.9,2.6c-0.1,0.6-0.2,1.3-0.7,1.7c-0.8,0.6-1.4,0.3-2-0.3c-1.3-1.3-1.8-3.8-4.1-3.3
						c-1.5,0.3-2.8,1-4.3,1.1c-0.7,0-1.3-0.3-1.3-1c0-1.2,1.1-2.1,1.9-2.9c1.2-1.2,2.2-2.2,0.9-3.9c-0.5-0.6-1-1.3-1.4-1.9
						c-0.5-0.7-1.3-1.9-0.6-2.7c1.2-1.4,5.1,0.5,6.6,0.7c0,0,0,0,0,0c1.2-1,3.8-4.3,5.4-2.8c1.1,1,0.3,3.1,0.2,4.3
						c-0.1,2.6,2.6,2.3,4.3,3.2C85.9,183.2,82.5,185.4,80.4,186.1z"/>
					<path class="st5" d="M91.4,184.3l-0.3-0.2c-2,0.4-4,0.6-5.9,1c-1.6,0.4-3.3,0.8-4.6,1.7c-1.3,1-1.4,2.1-1.6,3.6
						c-0.2,1.6-1.4,4.3-3.5,2.5c-1.1-0.9-1.9-3.3-3.5-3.3c-1.3,0-2.6,0.3-3.9,0.6c-0.9,0.2-5.1,1.4-5.6-0.1
						c-0.6-1.8,2.2-4.4,3.1-5.6c1.3-1.7,1.7-3.1,0.6-5.3c-0.6-1.3-1.4-2.6-1.6-4c-0.1-0.9-0.1-1.7,0.2-2.3l-3.5-0.9
						c-0.1,0-0.2,0-0.3,0c-0.2,0.1-0.3,0.3-0.2,0.5l0,0l4.4,10.2l-5.8,9.4l0,0c0,0.1-0.1,0.1-0.1,0.2c0,0.2,0.2,0.3,0.4,0.3
						l11.1-1.2l7.3,8.5c0,0,0,0,0.1,0c0.1,0,0.1,0,0.2-0.1L81,189l10.4-4.1c0.1,0,0.1-0.1,0.2-0.2C91.7,184.6,91.6,184.4,91.4,184.3
						z"/>
					<path class="st6" d="M76.9,174.4c-1.1-0.2-2.1,0.6-2.8,1.4c-0.4,0.4-0.8,0.8-1.1,1.3c-0.1,0.2-0.3,0.3-0.5,0.5c0,0,0,0,0,0
						c-1.1-0.5-2.3-1.2-3.5-1.4c-0.8-0.1-2-0.2-2.4,0.7c0,0.1,0,0.1,0.1,0.1c2-0.6,3.7,1,5.5,1.7c0.2,0.1,0.4,0,0.5-0.1c0,0,0,0,0,0
						c0.7,0.1,1.4-1.3,1.7-1.8c0.7-1,1.4-1.9,2.6-2.2C77,174.6,77,174.5,76.9,174.4z"/>
					<path class="st6" d="M82.9,183.3c0-0.2-0.1-0.4-0.2-0.5c-0.2-0.5-0.8-0.9-1.2-1.1c-0.2-0.1-0.4-0.2-0.6-0.2
						c-0.5-0.3-1.2-0.5-1.7-0.7c-1.1-0.5-1.7-1.3-1.6-2.5c0-0.1-0.1-0.1-0.1,0c-0.4,0.9-0.3,1.9,0.3,2.6c0,0,0,0.1,0,0.1
						c0,0,0,0,0.1,0c0.4,0.4,0.9,0.6,1.4,0.8c0.3,0.1,0.7,0.2,1,0.3c0.2,0,0.4,0.1,0.5,0.2c0.2,0.2,0.4,0.3,0.7,0.4c0,0,0,0,0,0
						c0,0.1,0,0.1,0,0.2c0.1,0.2,0.5,0.4,0.5,0.7c0,0.2-0.4,0.6-0.5,0.7c-0.3,0.3-0.6,0.5-1,0.7c-0.3,0.2-0.5,0.4-0.8,0.5
						c0,0,0,0.1,0,0.1c0.9-0.2,1.8-0.5,2.5-1C82.7,184.2,83,183.8,82.9,183.3z"/>
					<path class="st6" d="M70.4,184.7c-0.3-0.7-0.9-0.6-1.4-0.3c-0.3,0.1-0.6,0.4-0.9,0.6c-0.4,0.3-0.7,0.7-0.9,1.1
						c-0.1,0.2,0,0.5,0.2,0.6c0.6,0.3,1.5,0,2-0.3C70.2,186.1,70.7,185.5,70.4,184.7z"/>
					<path class="st6" d="M71.3,182.6c-0.1,0-0.2-0.1-0.4-0.1c-0.2,0-0.3,0.1-0.4,0.3c-0.1,0.1-0.2,0.2-0.3,0.3
						c-0.1,0.3,0.2,0.5,0.4,0.5c0.3,0,0.5-0.2,0.7-0.4C71.7,183.1,71.6,182.7,71.3,182.6z"/>
					<path class="st6" d="M77.2,188.2c0-0.2-0.1-0.3-0.2-0.4c-0.1,0-0.1,0-0.2-0.1c-0.1,0-0.3,0-0.4,0.1c-0.2,0.2-0.4,0.6-0.4,0.8
						c-0.1,0.3,0,0.5,0.3,0.6C77,189.5,77.2,188.6,77.2,188.2z"/>
					<path class="st6" d="M77.8,176.2c-0.5-0.1-0.5,0.7,0,0.7C78.2,177,78.2,176.3,77.8,176.2z"/>
				</g>
			</g>
			<path class="st7" d="M56.9,397.6c0,5.1-7.9,5.1-7.9,0C49,392.5,56.9,392.5,56.9,397.6z"/>
			<path class="st7" d="M198.6,173.2c-2.4,1.9-0.7,6.1,1.4,3.5C200.8,175.7,201.4,171,198.6,173.2
				C198.3,173.5,200.1,172,198.6,173.2z"/>
			<path class="st7" d="M59.1,225.9c-1.5,0-1.3,2.3,0.2,2.3C60.8,228.2,60.5,225.9,59.1,225.9z"/>
			<path class="st7" d="M146.9,260.1c-1.7,0-1.5,2.6,0.2,2.6C148.8,262.8,148.6,260.1,146.9,260.1z"/>
			<path class="st7" d="M273.2,246.7c-2.3-2.8-3.6-0.8-4.4,0.5C258.8,251.9,281.4,256.5,273.2,246.7
				C272.2,245.4,275,248.7,273.2,246.7z"/>
			<path class="st7" d="M152.6,399.6c-3,0-2.5,4.6,0.4,4.6C155.9,404.1,155.5,399.6,152.6,399.6z"/>
			<path class="st7" d="M223.3,370.9c-1.7,0-1.5,2.6,0.2,2.6C225.2,373.5,225,370.9,223.3,370.9z"/>
			<path class="st7" d="M116.3,459.6c-1.8,0-1.6,2.8,0.2,2.8C118.4,462.5,118.2,459.6,116.3,459.6z"/>
			<path class="st7" d="M116.2,561.2c-3.9,0-3.4,6,0.5,6C120.6,567.2,120.1,561.2,116.2,561.2z"/>
			<path class="st7" d="M50.4,592.1c-2.3,0-1.9,3.5,0.3,3.5C53,595.5,52.7,592.1,50.4,592.1z"/>
			<path class="st7" d="M148.8,626.5c-2.2,0-1.9,3.4,0.3,3.4C151.3,629.9,151,626.5,148.8,626.5z"/>
			<path class="st7" d="M282.4,144.3c-4.5,0-3.9,7,0.6,7C287.5,151.3,286.8,144.3,282.4,144.3z"/>
			<path class="st7" d="M409.6,173.6c-2.3-1.1-4,0-2.8,2.5C410.1,178.3,411,177.4,409.6,173.6C409.2,173.5,411,174.3,409.6,173.6z"
				/>
			<path class="st7" d="M400,209.3c-2,0-1.7,3,0.2,3C402.2,212.3,401.9,209.3,400,209.3z"/>
			<path class="st7" d="M516.8,144.4c-1.9-3-7.7,1.4-7.5,3.7C509.8,154.3,520.6,150.3,516.8,144.4
				C515.9,143.1,517.6,145.6,516.8,144.4z"/>
			<path class="st7" d="M476.4,234.8c-2.3,0-2,3.6,0.3,3.6C479,238.4,478.7,234.8,476.4,234.8z"/>
			<path class="st7" d="M564.6,305.9c0.7-1.6-6.9,3.9-1.1,3C564.6,308.7,567.7,306.3,564.6,305.9z"/>
			<path class="st7" d="M632.8,379.6c-2-8.5-6.6-1.7-7.1,0.6C624.5,385.4,634.3,386.2,632.8,379.6
				C632.3,377.4,633.1,380.9,632.8,379.6z"/>
			<path class="st7" d="M626.3,459.1c-0.9-1.1-4.5-4.1-4.8-0.3C621.1,465.6,629.2,462.6,626.3,459.1
				C626.1,458.8,627.4,460.4,626.3,459.1z"/>
			<path class="st7" d="M699.7,336.8c-4.6,0.4-6.2,8-0.4,7.5C703.5,344,704.5,336.4,699.7,336.8C699,336.8,701.8,336.6,699.7,336.8z
				"/>
			<path class="st7" d="M623.4,239c-3.1,0-2.7,4.8,0.4,4.8C626.9,243.8,626.4,239,623.4,239z"/>
			<path class="st7" d="M677.3,205.2c-1.5-2.6-5.6-0.8-3.2,1.2C675.1,207.2,679,208.2,677.3,205.2
				C677.1,204.8,677.7,205.8,677.3,205.2z"/>
			<path class="st7" d="M723.1,253.9c-0.8-1.2-4.6,0.9-3,2.6C721.5,258.1,723.8,254.9,723.1,253.9
				C722.5,253,723.7,254.8,723.1,253.9z"/>
			<path class="st7" d="M764.9,257.3c-0.5-5.9-8.4-3.4-8.6,1.6C756.1,264.6,765.3,262.3,764.9,257.3
				C764.7,255.2,765,258.7,764.9,257.3z"/>
			<path class="st7" d="M587.2,177c-1.8,0-1.6,2.8,0.2,2.8C589.2,179.8,589,177,587.2,177z"/>
			<path class="st7" d="M521.3,270.9c-1.3,0-1.2,2.1,0.2,2.1C522.8,273,522.6,270.9,521.3,270.9z"/>
			<path class="st7" d="M279.7,315.4c-1.9,0-1.6,2.9,0.2,2.9C281.8,318.3,281.5,315.4,279.7,315.4z"/>
			<path class="st7" d="M668.3,592c-2.4,0-2.1,3.7,0.3,3.7C671,595.7,670.7,592,668.3,592z"/>
			<path class="st7" d="M710.8,524.3c-1.3-3.1-5.3-2.7-6.3,0.2C702.5,531.6,712.9,529.6,710.8,524.3
				C709.6,521.5,711,524.9,710.8,524.3z"/>
			<path class="st7" d="M102,704.3c-1.6,0-1.4,2.4,0.2,2.4C103.8,706.8,103.6,704.3,102,704.3z"/>
			<path class="st7" d="M661.6,641.7c-2.3,0-1.9,3.5,0.3,3.5C664.2,645.2,663.9,641.7,661.6,641.7z"/>
			<path class="st7" d="M696.5,686.7c-1.1-0.1-4.7-2.8-4.8,0.6C691.4,693.2,701.4,687.3,696.5,686.7
				C696.1,686.7,698.3,687,696.5,686.7z"/>
			<path class="st7" d="M272.3,355.2C269.7,351.6,275.1,359.3,272.3,355.2C271.7,354.4,272.8,356,272.3,355.2z"/>
			<path class="st7" d="M148.7,207.5c-4,0-2.1,11.7,3.4,6.8C154.3,211.2,153.2,209,148.7,207.5C147.3,207.5,151.2,207.5,148.7,207.5
				z"/>
			<path class="st7" d="M148.8,160.4c-2.3,0-2,3.5,0.3,3.5C151.4,163.9,151.1,160.4,148.8,160.4z"/>
			<path class="st7" d="M35.2,262c-1.8,0-1.5,2.7,0.2,2.7C37.2,264.7,36.9,262,35.2,262z"/>
			<path class="st7" d="M587.2,239.8c0.6,0.5-8.3-0.3-5.4,3.6C582.4,249.2,592.1,243.7,587.2,239.8
				C585.8,238.8,589.4,241.5,587.2,239.8z"/>
			<path class="st7" d="M400.5,260.5c-1.4-7.2-9.6-0.8-5.9,2C397.7,264.6,399.7,263.9,400.5,260.5
				C400.4,259.5,400.8,261.7,400.5,260.5z"/>
			<path class="st7" d="M535.6,345c-2,0-1.7,3,0.2,3C537.8,348,537.5,345,535.6,345z"/>
		</g>
		<circle class="st8" cx="398.2" cy="479.2" r="264.3"/>
		<circle class="st9" cx="398.2" cy="479.2" r="238.3"/>
		<circle class="st6" cx="398.2" cy="479.2" r="208"/>
		<g>
			<g>
				
					<linearGradient id="SVGID_00000005975454728456361530000015873410997488062123_" gradientUnits="userSpaceOnUse" x1="835.6287" y1="1247.4399" x2="835.6287" y2="966.3083" gradientTransform="matrix(0.9925 0 0 1 -323.9877 0)">
					<stop  offset="0.2228" style="stop-color:#010101"/>
					<stop  offset="0.3052" style="stop-color:#0E0F0F"/>
					<stop  offset="0.4581" style="stop-color:#252626"/>
					<stop  offset="0.6647" style="stop-color:#424343"/>
					<stop  offset="0.9144" style="stop-color:#6D6D6D"/>
					<stop  offset="0.9901" style="stop-color:#7C7B7B"/>
				</linearGradient>
				<path style="opacity:0.7;fill:url(#SVGID_00000005975454728456361530000015873410997488062123_);" d="M859.9,1013.9
					c-8.6-13.7-22.9-22.6-39.1-22.6c-13.7,0-26,6.5-34.7,16.7c-6.3-16-20.8-27.3-37.6-27.3c-14.4,0-27.1,8.2-34.4,20.6
					c-4.9-8.6-13.6-14.4-23.6-14.4c-2.7,0-5.4,0.5-7.9,1.3c-6.3-13-18.7-21.9-33.1-21.9c-13.9,0-26,8.4-32.5,20.7
					c-0.5,0-1-0.1-1.5-0.1c-10.2,0-19.1,6.1-24,15.1c-8.6-9.1-20.2-14.7-33.1-14.7c-14.1,0-26.8,6.8-35.5,17.5
					c-12.3-9.8-27.4-15.6-43.7-15.6c-22.5,0-42.6,10.9-56.3,28.2c-5.4-2.7-11.4-4.2-17.7-4.2c-24.1,0-43.6,21.5-43.6,48.1
					c0,1,0.1,2,0.1,3c-2.3-0.7-4.6-1-7.1-1c-10.7,0-20,6.7-24.7,16.5c-5.7-3.2-12.1-5-18.9-5c-18,0-33.3,12.5-39.2,30.1
					c-1.2-0.2-2.3-0.3-3.5-0.3c-12.6,0-23,10.6-24.3,24.1c-0.3,0-0.7-0.1-1-0.1c-7.7,0-14.2,5.8-16,13.7c-1.9-0.1-3.8-0.2-5.8-0.2
					c-15.7,0-28.9,4.5-32.8,10.7c-1.3-0.1-2.5-0.1-3.8-0.1c-18.8,0-34,6.4-34,14.4c0,8,15.2,14.4,34,14.4c2.4,0,4.8-0.1,7.1-0.3
					c5.6,4.7,17.1,8,30.4,8c1.3,0,2.6,0,3.9-0.1c1.5,7.8,7.8,13.6,15.3,13.6c1.7,0,3.4-0.3,4.9-0.9c5.4,8.1,14.1,13.4,23.9,13.4
					c4.9,0,9.5-1.3,13.6-3.7c4.4,4.6,10.3,7.5,16.9,7.5c6.6,0,12.7-2.9,17.1-7.7c7.7,10.5,19.4,17.3,32.6,17.3
					c10.9,0,20.7-4.6,28.1-12.1c3.4,8.3,11,14,19.8,14c7.8,0,14.7-4.6,18.5-11.5c6.3,4.2,13.6,6.6,21.5,6.6c9.7,0,18.6-3.7,25.7-9.8
					c4,4.8,9.7,7.9,16.1,7.9c6.3,0,11.9-2.9,15.9-7.6c6,10.3,16.6,17.2,28.6,17.2c9.5,0,18-4.3,24.2-11.2c11.3,9.8,27.9,16,46.4,16
					c22.8,0,42.6-9.4,53.4-23.3c6.6,11.9,18.4,19.9,32,19.9c4.5,0,8.8-0.9,12.8-2.5c5,9,13.9,15,24.2,15c10.2,0,19.1-5.9,24.1-14.8
					c11.2,9,25,14.3,40,14.3c23.4,0,44-13,56.2-32.8c5.8,6.7,13.5,11.5,22.1,13.3V1013.9z"/>
				
					<linearGradient id="SVGID_00000156584201139961128120000007807777620824919943_" gradientUnits="userSpaceOnUse" x1="1106.5571" y1="767.7436" x2="1106.5571" y2="531.4731" gradientTransform="matrix(0.9925 0 0 1 -878.2695 379.5752)">
					<stop  offset="0.2228" style="stop-color:#010101"/>
					<stop  offset="0.3052" style="stop-color:#0E0F0F"/>
					<stop  offset="0.4581" style="stop-color:#252626"/>
					<stop  offset="0.6647" style="stop-color:#424343"/>
					<stop  offset="0.9144" style="stop-color:#6D6D6D"/>
					<stop  offset="0.9901" style="stop-color:#7C7B7B"/>
				</linearGradient>
				<path style="opacity:0.5;fill:url(#SVGID_00000156584201139961128120000007807777620824919943_);" d="M421.1,1076
					c-8-0.9-16.5-1.3-25-1.4c-0.4-4.6-2.9-8.9-7.1-11.2c-6.7-3.6-15-1.1-18.6,5.6c-1.6-23.4-65.5-36.9-76.5-15
					c-1.1-8.4-6-16.2-13.9-20.6c-13.1-7.2-29.5-2.2-36.6,11.1c-0.2,0.4-0.3,0.7-0.5,1.1c-4-0.9-8.1-1.6-12.1-1.9
					c1.3-7.6-2.1-15.5-9.2-19.4c-8.4-4.6-18.8-1.7-23.9,6.4c-2.8-2.3-5.8-4.4-9.1-6.2c-8.2-4.5-16.9-6.7-25.6-6.9
					c-4.7-12.8-13.8-24.1-26.6-31.1c-22.4-12.3-49.3-7.9-66.9,8.9c-0.1-11.2-5.8-21.9-16.2-27.6c-10-5.5-21.6-4.7-30.7,0.8
					c-2.4-15-11.3-28.8-25.5-36.6c-2.8-1.5-5.7-2.7-8.7-3.7V1139c0.6,0.4,1.2,0.8,1.8,1.1c27.5,15.1,61.5,5.7,77.9-20.7
					c3.5,5.5,8.3,10.3,14.4,13.6c15.9,8.8,35.2,5,47-7.9c1.4,0.9,2.8,1.8,4.2,2.6c22.3,12.2,48.9,8,66.5-8.6c22.2,7,48,3.5,64.6-8
					c11.2,1.9,23,2,33.9,0.5c2.1,2.5,4.6,4.7,7.6,6.3c13.1,7.2,29.5,2.2,36.6-11.1c0.1-0.1,0.1-0.2,0.1-0.4c15.7-0.9,30.1-4,39.4-9
					c24.1,0.9,49.5-1.3,61.8-5.8C459.5,1086,449.1,1079,421.1,1076z"/>
				
					<linearGradient id="SVGID_00000133488028088133694040000017910251151780312198_" gradientUnits="userSpaceOnUse" x1="1379.7042" y1="813.408" x2="1379.7042" y2="617.9001" gradientTransform="matrix(0.9925 0 0 1 -878.2695 379.5752)">
					<stop  offset="0.2228" style="stop-color:#010101"/>
					<stop  offset="0.3052" style="stop-color:#0E0F0F"/>
					<stop  offset="0.4581" style="stop-color:#252626"/>
					<stop  offset="0.6647" style="stop-color:#424343"/>
					<stop  offset="0.9144" style="stop-color:#6D6D6D"/>
					<stop  offset="0.9901" style="stop-color:#7C7B7B"/>
				</linearGradient>
				<path style="opacity:0.9;fill:url(#SVGID_00000133488028088133694040000017910251151780312198_);" d="M859.9,1113.5
					c-16.6-8.7-44.2-10.3-50.5,2.3c-0.9-7-4.9-13.4-11.5-17c-10.9-6-24.4-1.8-30.3,9.2c-0.2,0.3-0.2,0.6-0.4,0.9
					c-3.3-0.8-6.7-1.3-10.1-1.6c1.1-6.3-1.8-12.9-7.6-16.1c-7-3.8-15.6-1.4-19.7,5.3c-2.3-1.9-4.8-3.7-7.6-5.2
					c-6.8-3.7-14-5.5-21.2-5.7c-3.9-10.6-11.4-19.9-22-25.7c-18.6-10.2-40.8-6.5-55.3,7.4c-0.1-9.2-4.8-18.2-13.4-22.9
					c-8.3-4.5-17.9-3.9-25.4,0.7c-1.9-12.4-9.3-23.8-21.1-30.3c-15.3-8.4-33.6-5.9-46.1,4.9c-3.5-7.2-9.1-13.4-16.6-17.5
					c-19.2-10.5-43.2-3.3-53.6,16.3c-0.4,0.8-0.8,1.6-1.2,2.5c-3.4-3.3-7.3-6.3-11.7-8.7c-26.3-14.4-59.2-4.5-73.4,22.3
					c-2.6,4.9-4.4,10-5.4,15.1c-14.6-0.2-28.7,7.6-36.1,21.5c-2.1,3.9-3.4,8-4.2,12.2c-8.6-1.8-17.4,0.8-23.7,7
					c-1.7-1.4-3.5-2.6-5.4-3.7c-16-8.8-35.9-3.1-45.2,12.5c-0.5-0.4-1-0.8-1.6-1.1c-6-3.3-13.6-1-16.9,5.1c-1.4,2.6-1.7,5.5-1.2,8.3
					c-1.6,0.4-3.2,0.9-4.7,1.6c-1.1-2.4-2.9-4.5-5.3-5.8c-6-3.3-13.6-1-16.8,5.1c-1.3,2.5-1.7,5.2-1.3,7.7c-2.1,0.5-4.1,1.1-6,2.1
					c-5.2-1.1-10.8,1.3-13.5,6.3c-0.3,0.5-0.5,1.1-0.7,1.6c-1.6-0.3-3.2-0.6-4.9-0.6c-6,0-11.3,2.3-14.1,5.8c-0.4,0-0.9,0-1.3,0
					c-17,0-30.8,2.7-30.8,6c0,3.3,13.8,6,30.8,6c0.5,0,0.9,0,1.3,0c2.9,3.5,8.1,5.8,14.1,5.8c3.4,0,6.6-0.7,9.2-2
					c2.1,3.9,5.5,7.3,10.1,9.5c6.7,3.3,14.3,3.3,20.8,0.8c1.8,1.7,3.8,3.3,6.1,4.5c9,4.9,19.4,4.5,27.7-0.2c2.1,2.3,4.6,4.3,7.5,5.9
					c13.2,7.2,29.4,3.1,37.8-9c2.2,6.7,6.8,12.5,13.4,16.1c13.6,7.5,30.5,2.5,38.2-11.1c4.6,6.4,10.6,12,18,16
					c23.2,12.7,51.4,6.5,67.5-13.4c3.1,5.4,7.6,10.1,13.5,13.3c16.8,9.2,37.8,2.9,46.9-14.3c0.1-0.3,0.2-0.5,0.4-0.8
					c2.3,7,7,13.1,13.9,16.9c14.3,7.8,32.1,2.4,39.8-12.1c0.5-1,1-2,1.4-3c4.3,6.7,10.2,12.4,17.6,16.4
					c22.8,12.5,50.9,4.7,64.5-17.2c2.9,4.6,6.9,8.5,11.9,11.3c13.2,7.2,29.1,4.1,38.9-6.5c1.1,0.8,2.3,1.5,3.5,2.2
					c18.4,10.1,40.5,6.6,55-7.1c18.4,5.8,39.7,2.9,53.5-6.6c9.3,1.6,19,1.7,28,0.4c1.7,2.1,3.8,3.9,6.3,5.2
					c10.9,6,24.4,1.8,30.3-9.2c0-0.1,0.1-0.2,0.1-0.3c3.3-0.2,6.5-0.5,9.6-0.9V1113.5z"/>
				
					<linearGradient id="SVGID_00000070111660615876338650000014350887107845001634_" gradientUnits="userSpaceOnUse" x1="971.7403" y1="731.4302" x2="971.7403" y2="479.3136" gradientTransform="matrix(0.9925 0 0 1 -878.2695 379.5752)">
					<stop  offset="0.2228" style="stop-color:#010101"/>
					<stop  offset="0.3052" style="stop-color:#0E0F0F"/>
					<stop  offset="0.4581" style="stop-color:#252626"/>
					<stop  offset="0.6647" style="stop-color:#424343"/>
					<stop  offset="0.9144" style="stop-color:#6D6D6D"/>
					<stop  offset="0.9901" style="stop-color:#7C7B7B"/>
				</linearGradient>
				<path style="opacity:0.5;fill:url(#SVGID_00000070111660615876338650000014350887107845001634_);" d="M140,1053
					c-5.6-0.9-10.8-1.2-14.9-0.9c-0.6-3.5-5-6.5-10.5-7c-5.6-0.4-10.4,1.9-11.5,5.4c-2.3-2.4-5.4-4-9-4c-3.2,0-6.2,1.3-8.4,3.4
					c-2.6-3.7-6.7-6.2-11.4-6.6c-1.5-4.5-5.6-7.7-10.5-7.7c-1.7,0-3.3,0.4-4.8,1.1c-3.6-6.4-10.4-10.8-18.2-10.8
					c-5.3,0-10.1,2-13.7,5.3c-4.6-3.5-10.2-5.7-16.4-6v60.1c8-0.4,15.1-4,20.2-9.6c3.5,2.7,7.8,4.4,12.6,4.4
					c7.6,0,14.2-4.2,17.7-10.4c2.9,3.3,7,5.3,11.6,5.3c5.3,0,9.9-2.7,12.7-6.7c2.2,2.1,5.1,3.4,8.4,3.4c3.7,0,7-1.7,9.3-4.3
					c1.7,1.6,4,2.5,6.5,2.5c3.1,0,5.8-1.5,7.6-3.7c2.6,1.5,7,2.3,12,2.2c5.6-0.2,10.3-1.7,12.6-3.6c10.6,1.2,19,0.2,19.4-2.6
					C162,1059,152.4,1054.9,140,1053z"/>
				
					<linearGradient id="SVGID_00000065055800249815426990000009017222294414136737_" gradientUnits="userSpaceOnUse" x1="1302.2708" y1="839.86" x2="1302.2708" y2="593.6779" gradientTransform="matrix(0.9925 0 0 1 -878.2695 379.5752)">
					<stop  offset="0.2228" style="stop-color:#010101"/>
					<stop  offset="0.3052" style="stop-color:#0E0F0F"/>
					<stop  offset="0.4581" style="stop-color:#252626"/>
					<stop  offset="0.6647" style="stop-color:#424343"/>
					<stop  offset="0.9144" style="stop-color:#6D6D6D"/>
					<stop  offset="0.9901" style="stop-color:#7C7B7B"/>
				</linearGradient>
				<path style="opacity:0.5;fill:url(#SVGID_00000065055800249815426990000009017222294414136737_);" d="M796.6,1162.8
					c-5.5-0.9-10.6-1.1-14.6-0.9c-0.6-3.5-4.9-6.4-10.3-6.8c-5.5-0.4-10.2,1.9-11.2,5.3c-2.2-2.4-5.3-3.9-8.8-3.9
					c-3.2,0-6,1.3-8.2,3.3c-2.5-3.6-6.5-6-11.1-6.4c-1.5-4.4-5.5-7.6-10.3-7.6c-1.7,0-3.2,0.4-4.6,1.1c-3.5-6.3-10.1-10.5-17.7-10.5
					c-5.1,0-9.8,1.9-13.4,5.1c-4.8-3.7-10.9-6-17.4-6c-4.2,0-8.1,0.9-11.7,2.5c-1.3-10.2-9.8-18-20.2-18c-1.5,0-2.9,0.2-4.3,0.5
					c0-0.2,0-0.3,0-0.5c0-11.4-9.1-20.7-20.4-20.7c-1.5,0-3,0.2-4.4,0.5c-5.6-20.8-24.2-36.2-46.5-36.2c-10.5,0-20.2,3.4-28.1,9.2
					c-1.9-18-16.9-32.1-35.2-32.1c-10.3,0-19.5,4.5-26,11.6c-2.9-32.8-29.9-58.5-62.9-58.5c-15.2,0-29.1,5.4-40,14.5
					c-15-21.3-39.5-35.2-67.2-35.2c-39.8,0-73.1,28.7-80.8,66.9c-5.7-1.7-11.6-2.6-17.8-2.6c-33,0-60.1,25.2-63.8,57.7
					c-3.8-1.4-8-2.1-12.3-2.1c-14,0-26.1,7.8-32.6,19.3c-3.9-1.2-8.1-1.8-12.4-1.8c-15.3,0-28.8,8-36.7,20.1c-3-2-6.6-3.2-10.5-3.2
					c-8.5,0-15.7,5.8-18,13.7c-1.7-0.8-3.6-1.2-5.6-1.2c-0.3,0-0.7,0.1-1,0.1v38.8c0.8-0.6,1.6-1.3,2.3-2.1
					c3.4,4.4,8.8,7.3,14.7,7.3c6.5,0,12.2-3.4,15.6-8.5c7.3,14.4,22,24.3,39.1,24.3c13.7,0,26-6.4,34.1-16.5
					c5.8,14.1,19.6,24.1,35.6,24.1c17.3,0,31.9-11.6,36.8-27.5c5.5,14.8,19.6,25.3,36,25.3c14.7,0,27.5-8.4,34-20.7
					c11.3,18.9,31.6,31.6,55,31.6c18,0,34.2-7.5,45.8-19.6c7.2,11.7,20,19.5,34.5,19.5c12.2,0,23-5.4,30.5-14
					c12.2,10.8,28.2,17.3,45.6,17.3c21,0,39.9-9.5,52.6-24.5c7.9,6.4,17.9,10.3,28.8,10.3c15.3,0,28.8-7.6,37.2-19.2
					c6.4,6.5,15.2,10.5,25,10.5c12.6,0,23.7-6.7,29.9-16.8c5,8.8,14.3,14.7,25,14.7c8.4,0,15.9-3.6,21.2-9.4
					c3.4,2.7,7.6,4.3,12.3,4.3c7.4,0,13.8-4.1,17.3-10.1c2.8,3.2,6.8,5.2,11.3,5.2c5.2,0,9.7-2.6,12.4-6.6c2.2,2,5,3.3,8.2,3.3
					c3.6,0,6.8-1.7,9.1-4.2c1.7,1.5,3.9,2.5,6.3,2.5c3,0,5.6-1.4,7.4-3.6c2.5,1.4,6.8,2.3,11.7,2.1c5.4-0.2,10.1-1.6,12.3-3.5
					c10.4,1.2,18.5,0.2,18.9-2.6C818,1168.7,808.7,1164.7,796.6,1162.8z"/>
				
					<linearGradient id="SVGID_00000171718710495938036500000002018315121225654708_" gradientUnits="userSpaceOnUse" x1="1288.0479" y1="909.2426" x2="1288.0479" y2="615.0567" gradientTransform="matrix(0.9925 0 0 1 -878.2695 379.5752)">
					<stop  offset="0.2228" style="stop-color:#010101"/>
					<stop  offset="0.3052" style="stop-color:#0E0F0F"/>
					<stop  offset="0.4581" style="stop-color:#252626"/>
					<stop  offset="0.6647" style="stop-color:#424343"/>
					<stop  offset="0.9144" style="stop-color:#6D6D6D"/>
					<stop  offset="0.9901" style="stop-color:#7C7B7B"/>
				</linearGradient>
				<path style="opacity:0.9;fill:url(#SVGID_00000171718710495938036500000002018315121225654708_);" d="M726.2,1211.2
					c-1.2-8.7-8.5-15.3-17.3-15.3c-4.4,0-8.4,1.6-11.4,4.3c-3.2-4.5-8.3-7.4-14.2-7.4c-3.1,0-6,0.8-8.5,2.3c-1.7-8-8.7-14-17.1-14
					c-5.9,0-11,2.9-14.2,7.4c-4.3-4.4-10.2-7-16.7-7c-3.2,0-6.2,0.7-9,1.8c-0.7-9.2-8.2-16.5-17.4-16.5c-6.9,0-12.9,4.1-15.7,10
					c-4-3.3-9.2-5.3-14.8-5.3c-4.1,0-8,1.1-11.4,3c-5.9-4.4-13.2-7.1-21.2-7.1c-5,0-9.7,1-14,2.9c-3.7-16.1-17.9-28.1-34.8-28.1
					c-6,0-11.7,1.5-16.7,4.2c-4.5-7-12.3-11.7-21.1-11.7c-10.9,0-20.2,7.1-23.7,17c-2.1-16.8-16.2-29.8-33.2-29.8
					c-5.6,0-10.9,1.4-15.6,3.9c-7-13.7-20.6-23.3-36.4-24.8c0.3-1.5,0.5-3.1,0.5-4.7c0-11.9-9.5-21.5-21.1-21.5
					c-2.6,0-5.2,0.5-7.5,1.4c-4.8-18.6-21.5-32.4-41.3-32.4c-5.9,0-11.6,1.2-16.7,3.5c-0.6-29.2-24-52.6-52.8-52.6
					c-27.8,0-50.6,21.9-52.7,49.6c-7.6-7.2-17.8-11.6-29-11.6c-22.6,0-41.1,17.9-42.6,40.5c-3.2-1.3-6.7-2-10.4-2
					c-13.6,0-25,9.6-28,22.6c-8.5-5.6-18.5-8.8-29.3-9v170.4c6.4,3,13.4,4.8,20.9,4.8c17.6,0,33-9.3,41.8-23.3
					c14.5,22.5,39.5,37.3,68,37.3c16.8,0,32.3-5.2,45.3-14c6.6,8,16.4,13.1,27.5,13.1c10.1,0,19.3-4.3,25.8-11.2
					c6.5,10.7,18.1,17.8,31.3,17.8c11.7,0,22.2-5.6,28.9-14.3c6.9,13.9,21,23.4,37.4,23.4c17.4,0,32.4-10.8,38.7-26.2
					c7.6,8.5,18.6,13.8,30.9,13.8c8.6,0,16.5-2.6,23.1-7.1c4.8,2.4,10.2,3.8,15.9,3.8c16.3,0,30-11.1,34.3-26.3
					c6.6,8,16.4,13,27.4,13c5.7,0,11-1.4,15.7-3.7c3,2.7,7,4.4,11.3,4.4c7.2,0,13.4-4.6,15.9-11c7.6,1.4,15.9,2.2,24.6,2.2
					c11.1,0,21.6-1.3,30.8-3.5c19.9,22.4,48.8,8.4,52.8-4.6c14.2-1.2,26.6-3.8,35.8-7.5c2.6,2.9,6.3,4.8,10.5,4.8
					c6.3,0,11.6-4.2,13.4-9.9c0.8,0,1.5,0,2.3,0c37.7,0,68.3-4.4,68.3-9.9C789.4,1215.9,761.5,1211.6,726.2,1211.2z"/>
				
					<linearGradient id="SVGID_00000099629794882913936300000014155580949181126278_" gradientUnits="userSpaceOnUse" x1="1102.8661" y1="853.0796" x2="1102.8661" y2="577.0001" gradientTransform="matrix(0.9925 0 0 1 -878.2695 379.5752)">
					<stop  offset="0.2228" style="stop-color:#010101"/>
					<stop  offset="0.3052" style="stop-color:#0E0F0F"/>
					<stop  offset="0.4581" style="stop-color:#252626"/>
					<stop  offset="0.6647" style="stop-color:#424343"/>
					<stop  offset="0.9144" style="stop-color:#6D6D6D"/>
					<stop  offset="0.9901" style="stop-color:#7C7B7B"/>
				</linearGradient>
				<path style="fill:url(#SVGID_00000099629794882913936300000014155580949181126278_);" d="M499.6,1139
					c-2.4-10.2-11.4-17.8-22.2-17.8c-1.7,0-3.3,0.2-4.8,0.5c0-0.2,0-0.4,0-0.5c0-12.8-10.2-23.2-22.8-23.2c-1.7,0-3.3,0.2-4.9,0.6
					c-6.2-23.4-27.2-40.6-52.1-40.6c-11.8,0-22.6,3.9-31.5,10.3c-2.1-20.2-19-36-39.4-36c-11.6,0-21.9,5.1-29.2,13.1
					c-3.2-36.8-33.6-65.6-70.6-65.6c-17,0-32.6,6.1-44.9,16.3c-16.8-23.9-44.3-39.5-75.3-39.5c-44.7,0-82,32.2-90.6,75
					c-6.3-1.9-13-2.9-19.9-2.9c-24,0-45.2,11.9-58.2,30.2v80.1H499.6z"/>
				
					<linearGradient id="SVGID_00000004544279520506337360000003962050976566821820_" gradientUnits="userSpaceOnUse" x1="1521.3507" y1="858.2791" x2="1521.3507" y2="622.4476" gradientTransform="matrix(0.9925 0 0 1 -878.2695 379.5752)">
					<stop  offset="0.2228" style="stop-color:#010101"/>
					<stop  offset="0.3052" style="stop-color:#0E0F0F"/>
					<stop  offset="0.4581" style="stop-color:#252626"/>
					<stop  offset="0.6647" style="stop-color:#424343"/>
					<stop  offset="0.9144" style="stop-color:#6D6D6D"/>
					<stop  offset="0.9901" style="stop-color:#7C7B7B"/>
				</linearGradient>
				<path style="fill:url(#SVGID_00000004544279520506337360000003962050976566821820_);" d="M861.1,1173.2v-163
					c-1.2-0.8-2.5-1.7-3.9-2.4c-23.2-12.7-52.1-3.9-64.6,19.6c-0.5,1-1,2-1.4,3c-4.1-4-8.8-7.6-14.1-10.5
					c-31.8-17.4-71.4-5.4-88.6,26.9c-3.1,5.9-5.2,12-6.5,18.2c-17.6-0.3-34.6,9.1-43.6,25.9c-2.5,4.7-4.2,9.7-5.1,14.7
					c-10.3-2.2-21,0.9-28.6,8.4c-2-1.7-4.2-3.2-6.5-4.5c-19.3-10.6-43.3-3.8-54.6,15.1c-0.6-0.5-1.2-0.9-1.9-1.3
					c-7.3-4-16.4-1.2-20.3,6.2c-1.7,3.2-2.1,6.7-1.5,10c-1.9,0.5-3.8,1.1-5.7,1.9c-1.3-2.9-3.5-5.4-6.5-7.1
					c-7.3-4-16.4-1.2-20.3,6.2c-1.6,3-2,6.2-1.6,9.3c-2.5,0.6-4.9,1.4-7.2,2.5c-6.3-1.3-13,1.5-16.3,7.6c-0.3,0.6-0.6,1.3-0.8,2
					c-1.9-0.4-3.8-0.7-5.9-0.7c-7.3,0-13.6,2.8-17.1,7c-0.5,0-1.1,0-1.6,0c-16.1,0-29.8,2-34.9,4.8H861.1z"/>
			</g>
			<g>
				
					<linearGradient id="SVGID_00000018944411105100295290000012965147620546449086_" gradientUnits="userSpaceOnUse" x1="-378.9631" y1="1222.5543" x2="-378.9631" y2="941.423" gradientTransform="matrix(-0.9925 0 0 1 446.9966 0)">
					<stop  offset="0.2228" style="stop-color:#010101"/>
					<stop  offset="0.3052" style="stop-color:#0E0F0F"/>
					<stop  offset="0.4581" style="stop-color:#252626"/>
					<stop  offset="0.6647" style="stop-color:#424343"/>
					<stop  offset="0.9144" style="stop-color:#6D6D6D"/>
					<stop  offset="0.9901" style="stop-color:#7C7B7B"/>
				</linearGradient>
				<path style="opacity:0.7;fill:url(#SVGID_00000018944411105100295290000012965147620546449086_);" d="M861.1,1092.9
					c-1.4-0.3-2.8-0.5-4.3-0.5c-10.8,0-19.6,9.7-19.6,21.6c0,0.2,0,0.3,0,0.5c-29.1,0.5-52.1,5.8-52.1,12.5
					c0,5.9,18.2,10.8,42.7,12.1c1.5,10.3,9.6,18.1,19.3,18.1c3.3,0,6.5-0.9,9.2-2.5c1.3,2,2.8,3.7,4.6,5.2V1092.9z"/>
			</g>
		</g>
		<rect x="0" y="24.6" class="st23" width="800" height="88.1"/>
		<g>
			<path class="st24" d="M275.1,61.2v20.4h-4.4V61.2h-5.8V57h16.1v4.2H275.1z"/>
			<path class="st24" d="M300,65.4c0,3.1-1.8,5.6-4.5,6.6l5.1,9.6h-4.9l-4.7-9.1h-2.9v9.1h-4.4V57h9.2c4.1,0,7.2,3.1,7.2,7.1V65.4z
				 M295.6,64.1c0-1.6-1.2-2.9-2.8-2.9h-4.7v7.1h4.7c1.6,0,2.8-1.3,2.8-2.9V64.1z"/>
			<path class="st24" d="M320.3,57v17.9c0,4.1-3.1,7.1-7.2,7.1h-1.8c-4.1,0-7.2-3.1-7.2-7.1V57h4.4v17.9c0,1.6,1.2,2.9,2.8,2.9h1.6
				c1.6,0,2.8-1.3,2.8-2.9V57H320.3z"/>
			<path class="st24" d="M339.3,81.6l-9.4-15.8l-0.2-1.1v16.9h-4.4V57h3.9l9.4,15.8l0.2,1.1V57h4.4v24.7H339.3z"/>
			<path class="st24" d="M356.2,67.9h8.1v13.7h-1.7l-1.3-1.9c-1.2,1.4-2.9,2.3-4.9,2.3h-1.1c-4.1,0-7.2-3.1-7.2-7.1V63.7
				c0-4.1,3.1-7.1,7.2-7.1h1.8c4.1,0,7.2,3.1,7.2,7.1V65l-4.4,0.4v-1.7c0-1.6-1.2-2.9-2.8-2.9h-1.6c-1.6,0-2.8,1.3-2.8,2.9v11.1
				c0,1.6,1.2,2.9,2.8,2.9h1.6c1.6,0,2.8-1.3,2.8-2.9v-2.7h-3.6V67.9z"/>
			<path class="st24" d="M385.4,61.2v20.4H381V61.2h-5.8V57h16.1v4.2H385.4z"/>
			<path class="st24" d="M394.4,81.6V57h4.4v10.2h7.6V57h4.4v24.7h-4.4V71.4h-7.6v10.2H394.4z"/>
			<path class="st24" d="M431.9,57v17.9c0,4.1-3.1,7.1-7.2,7.1H423c-4.1,0-7.2-3.1-7.2-7.1V57h4.4v17.9c0,1.6,1.2,2.9,2.8,2.9h1.6
				c1.6,0,2.8-1.3,2.8-2.9V57H431.9z"/>
			<path class="st24" d="M447.3,57l4,9l4-9h4.8l-6.6,14.3v10.4h-4.4V71.3L442.5,57H447.3z"/>
			<path class="st24" d="M463,81.6V57h15.8v4.2h-11.3v6h9.1v4.2h-9.1v6h11.3v4.2H463z M476.3,54.1h-4.1l-1.7-2.2l-1.7,2.2h-4.1
				l3.5-4.6h4.4L476.3,54.1z"/>
			<path class="st24" d="M498.4,57v17.9c0,4.1-3.1,7.1-7.2,7.1h-1.8c-4.1,0-7.2-3.1-7.2-7.1V57h4.4v17.9c0,1.6,1.2,2.9,2.8,2.9h1.6
				c1.6,0,2.8-1.3,2.8-2.9V57H498.4z"/>
			<path class="st24" d="M519.6,61.2v20.4h-4.4V61.2h-5.8V57h16.1v4.2H519.6z"/>
			<path class="st24" d="M528.5,81.6V57h4.4v10.2h7.6V57h4.4v24.7h-4.4V71.4H533v10.2H528.5z"/>
			<path class="st24" d="M566.1,57v3.7c0.7-0.1,1-0.9,1-1.1V57h3.3v1.8c0,1.7-0.6,3.4-1.9,4.5c-0.5,0.4-1.9,0.9-2.5,1.1v10.5
				c0,4.1-3.1,7.1-7.2,7.1h-1.8c-4.1,0-7.2-3.1-7.2-7.1V57h4.4v17.9c0,1.6,1.2,2.9,2.8,2.9h1.6c1.6,0,2.8-1.3,2.8-2.9V57H566.1z"/>
			<path class="st24" d="M587.5,64.1v10.8c0,4.1-3.1,7.1-7.2,7.1h-1.8c-4.1,0-7.2-3.1-7.2-7.1V63.7c0-4.1,3.1-7.1,7.2-7.1h1.8
				c2.9,0,5.4,1.6,6.5,4.1c0.7-0.2,1-0.9,1-1.1V57h3.3v1.8c0,1.7-0.6,3.4-1.9,4.5C589,63.5,588.2,63.9,587.5,64.1z M575.8,74.9
				c0,1.6,1.2,2.9,2.8,2.9h1.6c1.6,0,2.8-1.3,2.8-2.9V63.7c0-1.6-1.2-2.9-2.8-2.9h-1.6c-1.6,0-2.8,1.3-2.8,2.9V74.9z"/>
			<path class="st24" d="M606.5,81.6l-9.4-15.8l-0.2-1.1v16.9h-4.4V57h3.9l9.4,15.8l0.2,1.1V57h4.4v24.7H606.5z"/>
			<path class="st24" d="M623.4,67.9h8.1v13.7h-1.7l-1.3-1.9c-1.2,1.4-2.9,2.3-4.9,2.3h-1.1c-4.1,0-7.2-3.1-7.2-7.1V63.7
				c0-4.1,3.1-7.1,7.2-7.1h1.8c4.1,0,7.2,3.1,7.2,7.1V65l-4.4,0.4v-1.7c0-1.6-1.2-2.9-2.8-2.9h-1.6c-1.6,0-2.8,1.3-2.8,2.9v11.1
				c0,1.6,1.2,2.9,2.8,2.9h1.6c1.6,0,2.8-1.3,2.8-2.9v-2.7h-3.6V67.9z"/>
			<path class="st24" d="M650.7,60.8h-0.2c-1.6,0-2.8,1.3-2.8,2.9v1.3l-4.4-0.4v-1c0-4.1,3.1-7.1,7.2-7.1h0.4c4.1,0,7.2,3.1,7.2,7.1
				c0,7.4-8.4,13.7-8.4,13.7h8.7v4.2h-15.2v-3.9c0,0,10.4-6.9,10.4-14C653.5,62.1,652.4,60.8,650.7,60.8z"/>
			<path class="st24" d="M677.7,74.9c0,4.1-3.1,7.1-7.2,7.1h-0.7c-4.1,0-7.2-3.1-7.2-7.1V63.7c0-4.1,3.1-7.1,7.2-7.1h0.7
				c4.1,0,7.2,3.1,7.2,7.1V74.9z M667,74.9c0,1.6,1.2,2.9,2.8,2.9h0.6c1.6,0,2.8-1.3,2.8-2.9V63.7c0-1.6-1.2-2.9-2.8-2.9h-0.6
				c-1.6,0-2.8,1.3-2.8,2.9V74.9z"/>
			<path class="st24" d="M688.8,60.8h-0.2c-1.6,0-2.8,1.3-2.8,2.9v1.3l-4.4-0.4v-1c0-4.1,3.1-7.1,7.2-7.1h0.4c4.1,0,7.2,3.1,7.2,7.1
				c0,7.4-8.4,13.7-8.4,13.7h8.7v4.2h-15.2v-3.9c0,0,10.4-6.9,10.4-14C691.6,62.1,690.4,60.8,688.8,60.8z"/>
			<path class="st24" d="M707.2,60.8H707c-1.6,0-2.8,1.3-2.8,2.9v1.3l-4.4-0.4v-1c0-4.1,3.1-7.1,7.2-7.1h0.4c4.1,0,7.2,3.1,7.2,7.1
				c0,7.4-8.4,13.7-8.4,13.7h8.7v4.2h-15.2v-3.9c0,0,10.4-6.9,10.4-14C710,62.1,708.8,60.8,707.2,60.8z"/>
		</g>
		<g>
			<circle class="st24" cx="130.4" cy="70.4" r="63.4"/>
			<g>
				<g>
					<g>
						<path class="st25" d="M82.4,101.5c7-8.4,17.8-13.3,28.8-13.3c3.6,0,7.3,0.5,10.8,1.1c13.4,1.9,27.4,6.7,40.6,3.7
							c10.2-2.3,20.7-11.9,17.6-23.1c-1.1-4.4-4.5-8-8.8-9.6c-5.8-2.2-13.7-0.5-15.5,6.2c-0.9,3.1-0.7,7.1,1.2,9.9
							c-2.5-2.6-3.3-6.6-2.8-10.2c1.2-8.5,10.9-11.8,18.4-9.7c10.3,2.6,15.9,14.1,12.7,24c-3,9.6-11.8,16.2-21.3,18.5
							c-7.4,1.7-15,1-22.2-0.3c-10.5-1.9-20.4-5.3-30.8-6.5C100.8,91.3,90.4,95,82.4,101.5L82.4,101.5z"/>
					</g>
					<g>
						<path class="st25" d="M109,87c10.6-2,21.7-0.3,32.1,1.8c5.2,0.8,10.5,1.2,15.6,0.4c7.1-1.1,15.2-4.7,17.5-12
							c1.7-5.5-2.1-12.7-8.3-12.6c-5.2-0.5-8.5,4.7-5.5,9c1.5,1.8,4.3,2.1,6.3,0.9c4.1-2.2,0.7-9-3-4.9c2-3.1,5.8-1.2,5.8,2.2
							c0.1,1.5-0.9,3-2.1,3.8c-6.4,4.3-12.8-3.1-9.3-9.4c2.3-4.3,8.1-5.1,12.3-3.3c2.9,1.1,5,3.7,6.2,6.5c5.1,12.5-8.4,21.9-19.5,23
							c-8.3,1.1-16.4-0.9-24.3-2.8C125,87.7,117,86.4,109,87L109,87z"/>
					</g>
					<g>
						<path class="st25" d="M83.2,103.4c7.3-5.5,16.8-9.5,26.1-7.7c7.6,1.5,14.1,5.7,21.4,8.1c7,2.7,14.4,4.2,21.9,5
							c-9.2,0.8-18.4-1-27-4.1c-5.7-1.9-11-5.1-16.7-6.3C99.9,96.3,91.1,99.6,83.2,103.4L83.2,103.4z"/>
					</g>
					<g>
						<path class="st25" d="M108.6,101.1c10.4,0.8,23.1,9.3,18.8,21.1C128.8,110.4,118.2,104.6,108.6,101.1L108.6,101.1z"/>
					</g>
					<g>
						<path class="st25" d="M93.2,101.1c10.5-2,24.8,3.1,24,15.7C115.2,104.9,103.6,101.9,93.2,101.1L93.2,101.1z"/>
					</g>
					<g>
						<path class="st26" d="M82.4,97c0,0,11.8-12.1,34.8-13.8c19.2-1.4,30.8,9.5,47.6,2.9"/>
						<path class="st27" d="M99.2,90.2c-0.5-0.6-1.7-0.7-2.9-0.1c-2.1,1.1-5.1,4.2-7.7,5.9c-8.3,5.4-15.3-8.4-7.2-13.8
							c3-2,7.1-1,5.3,3.6c4.7-1.9,6.4,3.7,1.7,6.6c-1.3,0.8-2.9,1.1-4.1-0.2c-0.7-0.7-1.3-1.7-1.8-2.5c0-0.1-1.3-2.3-2.1-3.7
							c-0.6-1,0.2-1.9,1.2-1.9c0.6,1,2.5,4.4,2.5,4.5c0.4,0.7,0.8,1.5,1.3,2.1c0.9,1.3,1.6,1.2,2.2,0.8c3.3-2.3,0.9-6-1.3-4.8
							c-0.4,0.6-1.4,1.8-2,0.8c-0.5-0.8,0.9-1.2,1.4-1.5c0.2-3.2-2.4-4.4-4.5-2.9c-5.9,4.2,1.4,15.6,6.7,12.2
							c3.2-2.1,6.8-7.5,9.6-7.6C99.1,87.8,100.2,89,99.2,90.2z"/>
						<path class="st28" d="M91.7,76.9c0.7,0.4,1.5,0.7,2.1,1.1c0.3,0.2,0,0.8-0.4,1c-0.4-0.2-1.9-1-2.1-1.2
							c-0.1,0.7-0.4,1.7-0.5,2.4c-0.5,0.1-1.1-0.1-1-0.4c0.2-0.7,0.4-1.5,0.7-2.3C90.8,76.9,91.2,76.7,91.7,76.9z M96.7,82.6
							c1.2,2.9,0.5,5.4-0.9,6c-1.5,0.6-3.5-0.2-4.6-2.9c-1-2.7-0.1-4.8,1.3-5.4C93.8,79.6,95.5,79.8,96.7,82.6z M92.2,73
							c0.3-0.1,1.3-0.1,1.3,0.4c0,1.2-0.1,2-0.2,3.3c-0.4,0-0.7,0.1-0.8-0.4C92.4,74.9,92.3,74.3,92.2,73z M93.1,80.9
							c-0.7,0.3-1,1.7-0.2,4c0.8,2.2,2,3,2.7,2.5c0.7-0.4,1-1.8,0.2-3.8C94.9,81.5,93.9,80.5,93.1,80.9z"/>
						<path class="st29" d="M107.3,82.1c0,0.2,0,0.4,0,0.6c-0.1,1.2-0.6,2-1.4,2.3c-1.3,0.4-2.1-0.5-2.6-1.5
							c-0.6-1.1-1.1-3.9-1.6-4.5c-0.1-0.2-0.3-0.3-0.5-0.2c-0.3,0.1-0.7,0.5-1,1.2c-0.2,0.7-0.4,1.6-0.4,2.7c0.1,0.5,0.2,1,0.3,1.5
							c0.1,0.5,0.2,1.1,0.4,1.6c0.2,0.9-0.9,1.4-1.6,1.4c0-0.1-0.3-1.2-0.6-2.4c-0.4-1.7-0.8-3.4-1.1-5.1c-0.2-1,0.8-1.5,1.6-1.4
							c0.2,1.1,0.5,2.1,0.5,2.6c0.1-0.7,0.2-1.3,0.4-1.8c0.4-1,0.9-1.5,1.5-1.7c0.7-0.2,1.3,0,1.7,0.3c1,0.9,1.3,3.5,1.8,4.9
							c0.2,0.6,0.5,1.7,1.4,1.4c0.3-0.1,0.6-0.4,0.7-0.8c0.1-0.3,0.1-0.7,0.1-1.1C107.2,81.6,107.3,81.8,107.3,82.1z"/>
						<path class="st30" d="M123.3,80.3c0,0.2-0.1,0.4-0.1,0.6c-0.3,1.1-1,1.9-1.9,2c-1.3,0.1-2-0.9-2.2-2c-0.3-1.2-0.3-4-0.7-4.7
							c-0.1-0.2-0.2-0.3-0.4-0.3c-0.4,0-0.8,0.4-1.2,1c-0.3,0.6-0.7,1.3-0.9,2.3c0,0,0,0.1,0,0.1c0,0.2,0.1,2.2,0.2,3.1
							c0.1,0.9-1,1.1-1.7,1c0-0.2-0.2-3.2-0.2-3.4c0-0.5,0-3.6-0.8-3.6c-0.4,0-0.8,0.4-1.2,1c-0.3,0.5-0.6,1.1-0.8,1.9
							c0,0.7,0.1,1.4,0.1,2.1c0,0.5,0,1.1,0,1.6c0,0.9-1.1,1.2-1.9,1c0-0.1-0.1-1.2-0.1-2.5c-0.1-1.8-0.1-3.5-0.1-5.2
							c0-1,1-1.3,1.9-1.1c0,0.8,0,1.6,0,2.1c0.2-0.5,0.4-0.9,0.6-1.2c0.6-0.9,1.2-1.3,1.8-1.4c1-0.1,1.7,0.5,2,1.5
							c0.1,0.2,0.1,0.6,0.2,1.1c0.2-0.6,0.4-1.2,0.7-1.6c0.6-0.9,1.2-1.3,1.8-1.4c0.7-0.1,1.2,0.2,1.6,0.7c0.8,1.1,0.6,3.7,0.8,5.1
							c0.1,0.6,0.2,1.8,1.1,1.7c0.4,0,0.7-0.3,0.9-0.7c0.1-0.2,0.2-0.6,0.3-1C123.3,79.8,123.3,80,123.3,80.3z"/>
						<path class="st31" d="M131.3,81.6c-0.1,0.2-0.1,0.3-0.2,0.5c-0.5,1.1-1.4,1.7-2.2,1.6c-1.3-0.1-1.7-1.3-1.8-2.4
							c0-0.1,0-0.1,0-0.1c-0.5,1.1-1.3,2.2-2.5,2.1c-1.3-0.1-1.7-1.3-1.8-2.4c-0.1-1.1,0.1-2.5,0.3-3.6c0-0.1,0.2-0.7,0.4-1.8
							c0.2-1.1,1.1-1.2,2.1-0.7c-0.3,1.4-0.5,2.6-0.5,2.7c-0.2,0.9-0.4,2-0.5,2.9c0,0.6-0.2,1.8,0.7,1.8c0.9,0.1,1.5-1.5,1.9-2.4
							c0-0.7,0.2-1.5,0.3-2.1c0-0.1,0.2-0.8,0.4-1.9c0.2-1,1.2-1.1,2.1-0.6c-0.3,1.4-0.5,2.6-0.5,2.7c-0.2,0.9-0.4,2-0.5,3
							c0,0.6-0.2,1.7,0.7,1.8c0.3,0,0.7-0.2,1-0.5c0.2-0.2,0.3-0.5,0.5-0.9C131.3,81,131.4,81.3,131.3,81.6z M127,73.8
							c-0.4-1.2-0.8-1.9-1.1-3.1c-0.1-0.4,0.8-0.8,1.1-0.8c0.3,1.3,0.4,1.9,0.6,3.2C127.6,73.6,127.3,73.7,127,73.8z"/>
						<path class="st32" d="M139.7,83.6c-0.1,0.2-0.2,0.3-0.3,0.5c-0.6,1-1.6,1.5-2.4,1.3c-1.3-0.3-1.6-1.5-1.5-2.6
							c0-0.2,0-0.5,0.1-0.8c-1.2,1.7-2.5,2.5-3.4,2.3c-2.9-0.6-1-6.7,2.1-8.1c1-0.5,2.3-0.3,2.9,0.7c0.4-0.5,1.2-0.3,1.8,0.1
							c-0.4,1.3-0.7,2.5-0.8,2.6c-0.3,0.9-0.6,2-0.8,2.9c-0.1,0.6-0.4,1.7,0.5,1.9c0.3,0.1,0.7-0.1,1-0.4c0.2-0.2,0.4-0.5,0.5-0.8
							C139.8,83.1,139.8,83.4,139.7,83.6z M136.8,77.4c-0.4-0.7-1.2-0.6-1.9-0.1c-1.6,1.3-3,5.2-1.9,5.6c0.6,0.2,1.8-0.7,2.9-2.5
							c0.1-0.4,0.2-0.8,0.3-1.2C136.2,79.1,136.4,78.5,136.8,77.4C136.8,77.4,136.8,77.4,136.8,77.4z"/>
						<path class="st33" d="M158.7,92.6c-0.1,0.4-0.3,0.7-0.5,1c-1.5,2-3.9,2.3-6.4,1.8c-1.7-0.3-3.7-1.2-5.9-2.7
							c-2.4,3.4-6.2,4.1-9.5,3.5c-9.6-1.9-9.8-13,1.7-8.8c1.9,0.7,4.2,1.9,6.8,3.6c0.8-1.6,1.4-4.1,1.9-6.4
							c-1.1,1.7-2.5,2.4-3.4,2.3c-2.8-0.5-1.1-6.7,1.9-8.1c1-0.5,2.2-0.3,2.8,0.6c0.4-0.5,1.2-0.4,1.9,0c-0.4,1.4-0.8,2.8-1.1,4.1
							c-0.8,2.8-1.1,5.8-2.5,8.2c2,1.2,3.8,1.9,5.3,2.2c0.8,0.2,1.6,0.2,2.2,0.1c1.5-0.2,2.9-1,2.9-2.7c0-0.4-0.1-0.7-0.2-1
							C158.2,89.8,159.1,91.2,158.7,92.6z M144.5,92c-2.6-1.8-4.9-2.9-6.7-3.5c-8.8-2.9-9.1,5.8-1.1,6.9
							C139.5,95.7,142.6,94.9,144.5,92z M147.3,82.8c0-0.2,0.1-0.3,0.1-0.5c0.2-0.7,0.4-1.5,0.6-2.3c-0.5-0.7-1.2-0.7-1.9-0.1
							c-1.6,1.4-2.9,5.3-1.8,5.7C145,85.8,146.2,84.8,147.3,82.8z"/>
						<path class="st28" d="M154.8,86c0,0.2-0.1,0.3-0.2,0.5c-0.4,1.1-1.3,1.7-2.1,1.7c-1.3-0.1-1.8-1.2-2-2.3
							c-0.1-1.1,0-2.5,0.1-3.7c0-0.1,0.1-0.8,0.2-1.9c0.1-1,1.2-1.2,2-0.8c-0.2,1.4-0.3,2.6-0.3,2.7c-0.1,0.9-0.3,2-0.3,3
							c0,0.6-0.1,1.8,0.8,1.8c0.4,0,0.7-0.2,1-0.6c0.2-0.2,0.3-0.5,0.4-0.9C154.8,85.5,154.9,85.7,154.8,86z M151.3,77.5
							c0-0.6,0.5-1,1-1s1,0.5,1,1.1c0,0.6-0.5,1-1,1C151.7,78.6,151.2,78.1,151.3,77.5z"/>
						<path class="st29" d="M161.3,82.1c0.6,3.1-0.7,5.3-2.2,5.6c-1.6,0.3-3.4-0.9-3.8-3.8c-0.4-2.8,0.9-4.7,2.5-5
							C159.2,78.7,160.8,79.2,161.3,82.1z M157.2,74.4c0.4,0,1.3,0.2,1.2,0.7c-0.3,1.2-0.5,2-0.9,3.1c-0.3-0.1-0.7-0.1-0.7-0.6
							C157,76.3,157.1,75.8,157.2,74.4z M158.2,79.7c-0.8,0.2-1.3,1.4-1.1,3.8c0.3,2.3,1.3,3.3,2.1,3c0.8-0.3,1.3-1.5,1-3.6
							C159.9,80.7,159.1,79.5,158.2,79.7z"/>
					</g>
				</g>
				<g>
					<path class="st34" d="M100.6,62.1c0,0-3.1-0.4-2.9,3.7c0.2,3.5,3.7,4.8,5.7,3.4c0,0,0.9,6.2,6.2,2.4c0,0,4.7,4.6,7-1.3
						c0,0,3.6,3.2,5.7-0.6c1.2,1.4,7.4-3.4,1.3-6.2c1.6-1.3-2.9-7.3-6.9-2.3c0.4,0.3-1.9-5.8-7-1.1
						C109.8,60.2,103.7,55.2,100.6,62.1z"/>
					<path class="st34" d="M109.8,60.2c0,0-0.4,0.4-1,1.1"/>
					<path class="st34" d="M103.4,69.3c0,0,0.3-0.1,0.4-0.4"/>
					<path class="st34" d="M109.6,71.7c0,0-0.1-0.1-0.4-0.4"/>
				</g>
				<path class="st35" d="M116.3,57.4l1.7,2.9c0,1.2-1,3.6-1.4,4.1l-2.4,3.4l-1.7-0.8l1.3-2c0.8-1.2,1.1-2.3,1.4-3.2v-0.4
					c0-0.5-0.2-0.9-0.5-1.3l-1.2-1.2l-1.7,0l-0.1-1.2L116.3,57.4z"/>
				<polygon class="st36" points="112.5,66.9 111.9,67.4 114.6,69.3 114.2,67.7 				"/>
				<circle class="st37" cx="123.8" cy="46.4" r="7.6"/>
				<ellipse class="st36" cx="124.3" cy="45.2" rx="1.4" ry="1.8"/>
				<ellipse class="st36" cx="119.7" cy="45.2" rx="1.4" ry="1.8"/>
				<ellipse class="st38" cx="123.6" cy="45.2" rx="0.6" ry="0.9"/>
				<ellipse class="st38" cx="119" cy="45.2" rx="0.6" ry="0.9"/>
				<path class="st39" d="M119.1,48.9c0.8,0.3,2.6,0.2,6.3-1c0,0-1.1,7.2-3.6,4.9C121.8,52.8,120,51.2,119.1,48.9"/>
				<path class="st41" d="M119.1,48.9c0,0-0.9-0.3-0.6-1.1c0,0,0.4-0.7,0.7,0.3"/>
				<line class="st42" x1="116.8" y1="38.5" x2="112.3" y2="34.1"/>
				<line class="st42" x1="121.3" y1="36.4" x2="116.7" y2="24.5"/>
				<line class="st42" x1="125.7" y1="36.4" x2="128" y2="29.9"/>
				<line class="st42" x1="130.9" y1="39.5" x2="140.1" y2="32.2"/>
				<line class="st42" x1="133.2" y1="44.9" x2="141.1" y2="44.1"/>
				<line class="st42" x1="132.6" y1="51.5" x2="141.1" y2="59.4"/>
				<line class="st42" x1="126.4" y1="55.4" x2="127.7" y2="59.1"/>
				<line class="st42" x1="119.5" y1="53.8" x2="116.9" y2="57.7"/>
				<line class="st42" x1="105.2" y1="45.7" x2="110" y2="45.9"/>
				<g>
					<path class="st43" d="M122.7,43.1c1-2.3,4-2,5.4-0.1c-0.5-0.1-0.9-0.5-1.4-0.7c-0.5-0.2-0.9-0.4-1.4-0.5
						C124.2,41.6,123.2,42.4,122.7,43.1L122.7,43.1z"/>
				</g>
				<g>
					<path class="st43" d="M120.9,43.1c-0.6-1.5-2.4-1.5-3.7-1c-0.5,0.1-1,0.4-1.4,0.3C117.2,41.1,120.4,40.9,120.9,43.1L120.9,43.1
						z"/>
				</g>
				<path class="st44" d="M121,52c0,0,0.5-0.9,1.7-0.6c0,0,1-0.8,1.9-0.2c0,0-0.9,2.1-1.7,2.1C122,53.2,121,52,121,52"/>
				<path class="st45" d="M113.8,48.9c-1.7,0-2,0.8-2,0.8l-0.1,7.9l4.6-0.2l1-7.5c0,0-0.8-1.1-1.7-1.1"/>
				<polyline class="st45" points="114.9,51.1 118.1,50.7 117.9,53 115.6,53.3 				"/>
				<path class="st46" d="M118,51.4c0,0,2.6,0.3,4.7-2.3l1,0.9c0,0-2.1,2.8-5.8,2.7L118,51.4z"/>
				<ellipse class="st47" cx="114.7" cy="45.4" rx="3.3" ry="3.6"/>
				<path class="st38" d="M113.3,47.5c0,0.8-1.1,0.2-1.1,0.2s-1.5-2-1.2-3.6s1-1.8,1.6-2.3s1.8-0.9,3.4-0.5c1.8,0.4,2.4,1.9,2.4,1.9
					c0.1,1-0.6,1.3-0.6,1.3s-0.3-1.1-1-1.1c0,0,0.5,0.8,0.5,1.3c0,0-0.8-1.3-1.6-1c0,0,0.8,0.3,0.8,0.8c0,0-0.9-0.5-1.3-0.5
					c0,0,0,0.3,0.4,0.4c0,0-0.6,0.1-1.4-0.3c0,0,0.6,0.6,0.4,0.9C114.5,44.9,113,43.7,113.3,47.5z"/>
				<path class="st48" d="M115.6,47c0,0,0.8,0.3,1.3,0C116.9,47,115.9,49.6,115.6,47z"/>
				<path class="st49" d="M116.9,45.9c0,0,0.3-0.5,0.8,0"/>
				<path class="st49" d="M114.8,45.9c0,0,0.5-0.5,0.9,0"/>
				<path class="st50" d="M116.2,50.2c0,0,3.1,0.2,5.2-2.6"/>
			</g>
		</g>
	</g>
</g>
</svg>
